<svg xmlns="http://www.w3.org/2000/svg" viewBox="0 0 1400 520.65"><defs><style>.cls-1{fill:#fff;}.cls-2{fill:#fa6a64;}</style></defs><g id="Capa_2" data-name="Capa 2"><g id="Capa_1-2" data-name="Capa 1"><path class="cls-1" d="M988.53,300.75q-1.59,2.38-3.85,6.23T980,315.34q-2.38,4.52-4.51,9.15c-1.42,3.1-2.56,5.89-3.45,8.36a.76.76,0,0,0-.26.53q2.91-5.56,6.76-12.07t7.83-11.94a73,73,0,0,1,8-9.29q4-3.84,7.43-4.37,6.09-1.06,9.68,2.78t2.26,13.93a142,142,0,0,1,8.35-11.54,85.3,85.3,0,0,1,8.89-9.55,42.14,42.14,0,0,1,8.89-6.37,14.65,14.65,0,0,1,8.62-1.72,16.59,16.59,0,0,1,7.43,2.12,10.83,10.83,0,0,1,4.78,6.9,30.05,30.05,0,0,1,.53,9.81A55.82,55.82,0,0,1,1059,313a95.58,95.58,0,0,1-3.58,9.82l-2.12,5.57q-2.93,8-2.52,12.47t4.9,4.24c2.3,0,5.18-1.36,8.63-4.11a101,101,0,0,0,10.34-9.55q5.18-5.43,9.82-11.27t7.56-9.56a19.39,19.39,0,0,1,3.19-3.44q1.85-1.61,5.57-1.6a2.73,2.73,0,0,1,2.65,1.73c.53,1.15.27,2.43-.8,3.85q-3.7,5-10.08,13.92a169.41,169.41,0,0,1-14.46,17.51,103.35,103.35,0,0,1-17.24,14.86q-9.15,6.24-18.18,6.24-8,0-11.67-4.51t-4-11.68a54.59,54.59,0,0,1,2.12-16.05,103.16,103.16,0,0,1,6.9-18.17c.18-.18.27-.31.27-.4s.08-.22.26-.4A26.16,26.16,0,0,1,1038,309a17.16,17.16,0,0,0,1.33-3.45,3.83,3.83,0,0,0-.13-2.65c-.36-.7-1.16-1-2.39-.8q-2.65,0-11,9.16t-17.38,24.54l-2.12,3.71a21.5,21.5,0,0,0-2,3.85c-.62,1.5-1.29,3-2,4.38a19.61,19.61,0,0,1-.8,2.12,15,15,0,0,1-3.18,5.57q-1.86,1.86-5.57,1.33-5.31-.8-5.84-6A33.5,33.5,0,0,1,988,339.22a74.93,74.93,0,0,1,4.25-12.34,73.76,73.76,0,0,1,4-8.09q2.12-3.72,1.59-5.31a1,1,0,0,0-1.06-.79c-1.07-.36-2.48.35-4.25,2.12a66,66,0,0,0-5.84,6.9q-3.18,4.25-6.63,9.55t-6.37,10.35q-2.91,5-5.3,9.28c-1.59,2.83-2.66,4.87-3.19,6.1a1.81,1.81,0,0,1-.13.8,1.84,1.84,0,0,0-.13.8,11.92,11.92,0,0,1-2.52,4.64,8.66,8.66,0,0,1-2.79,2,5.79,5.79,0,0,1-3.45,0q-5.29-.8-6.36-6.63a49.46,49.46,0,0,1-.53-12.74,118.74,118.74,0,0,1,3.44-18,116.19,116.19,0,0,1,9-22.55A98.92,98.92,0,0,1,973.67,287a27.86,27.86,0,0,1,4.51-4.51,33.17,33.17,0,0,1,4.38-2.78,5.67,5.67,0,0,1,4.64-.4,8.71,8.71,0,0,1,6.11,7.56Q994.11,292.52,988.53,300.75Z"/><path class="cls-1" d="M1101.35,365.22a25.12,25.12,0,0,1-10.21-4.25,20.43,20.43,0,0,1-5.84-6.63,19.37,19.37,0,0,1-2.26-8.09,51.09,51.09,0,0,1,.27-8.89,72.36,72.36,0,0,1,7.16-22.29q7.42-13.26,15.79-20.82a63.59,63.59,0,0,1,16.32-11.14,40.77,40.77,0,0,1,15.25-3.85,48.37,48.37,0,0,1,12.87,1.06,14.66,14.66,0,0,1,6.37,4,11,11,0,0,1,2.78,6.1c.44,2.65-.31,6-2.25,10.08a86.18,86.18,0,0,1-13.53,18.31,83.14,83.14,0,0,1-16.85,12.73q-9.95,5.85-23.48,5.58a18.1,18.1,0,0,0-.27,11q1.59,4.9,8.76,6.23a26.44,26.44,0,0,0,12.34-.26,72,72,0,0,0,11.54-4,91.73,91.73,0,0,0,11.93-6.9,60,60,0,0,0,8.36-6.9q4.38-4.24,8.49-8.76c2.74-3,5.31-6,7.7-8.88l6-7.3a19.38,19.38,0,0,1,3.18-3.45q1.85-1.59,5.57-1.59A2.73,2.73,0,0,1,1190,308q.8,1.74-.79,3.85-2.39,3.45-6.5,8.62t-9.29,10.88q-5.18,5.72-11.27,11.67a146.94,146.94,0,0,1-12.21,10.75,58.46,58.46,0,0,1-14.06,8.22,60.53,60.53,0,0,1-15.52,4.25A50.07,50.07,0,0,1,1101.35,365.22Zm18.84-57c-1.42,1.77-2.83,3.62-4.25,5.57-1.24,1.77-2.56,3.8-4,6.1s-2.74,4.69-4,7.16a37,37,0,0,0,11.54-4.64q5.45-3.31,9.69-6.5a96.28,96.28,0,0,0,9-8q1.59-1.85,4.11-4.64a67.8,67.8,0,0,0,4.64-5.71,27.47,27.47,0,0,0,3.19-5.43c.7-1.68.7-2.79,0-3.32-2.13-1.59-4.65-1.73-7.56-.4a40.26,40.26,0,0,0-8.76,5.57,67.28,67.28,0,0,0-8.09,7.83Q1122,306.05,1120.19,308.18Z"/><path class="cls-1" d="M1185,363.63c-1.06,3-2.22,6.06-3.45,9.29s-2.56,6.58-4,10.07q9.29,0,22.42.41t28.52,1.76a23.62,23.62,0,0,1,5.57,1.08,12.72,12.72,0,0,1,3.71,2.17,4.46,4.46,0,0,1,1.33,4.07,5.58,5.58,0,0,1-1.72,3.91,7.83,7.83,0,0,1-3.45,1.59,12.87,12.87,0,0,1-4.12.14,29.8,29.8,0,0,0-3.71-.27c-.53,0-2.39-.13-5.57-.4s-7.26-.53-12.21-.79-10.57-.49-16.84-.67-12.78-.26-19.5-.26a303.21,303.21,0,0,1-15.26,29.58,165.14,165.14,0,0,1-18.84,26.27,84.36,84.36,0,0,1-22.15,18.17,42.76,42.76,0,0,1-25.47,5.31q-18-1.6-25.47-9.95a23.89,23.89,0,0,1-6.1-19.5q1.33-11.14,10.48-23.48a88.51,88.51,0,0,1,24.28-21.89A101.27,101.27,0,0,1,1121.05,388a136.49,136.49,0,0,1,33.43-5q5.57-11.85,10.34-24.5a214.28,214.28,0,0,0,8-25.9,91.11,91.11,0,0,1,3.58-11.81q2.27-6,4.91-11.81t5.57-11.14q2.92-5.31,5.84-9.55a28,28,0,0,1,3.72-5.31,13.17,13.17,0,0,1,3.84-3.45,6.26,6.26,0,0,1,4.65-.79,9.19,9.19,0,0,1,7.16,6.76q1.59,5.44-2.92,14.46-2.13,4.51-5.84,12.21a157.49,157.49,0,0,0-6.36,15,48.68,48.68,0,0,0-3.06,12.6c-.26,3.54,1.11,5.3,4.12,5.3,2.29,0,5.17-1.36,8.62-4.11a101.09,101.09,0,0,0,10.35-9.55q5.18-5.43,9.81-11.27t7.56-9.56a19.77,19.77,0,0,1,3.19-3.44q1.85-1.61,5.57-1.6a2.73,2.73,0,0,1,2.65,1.73q.79,1.72-.79,3.85-3.72,5-10.09,13.92a170.58,170.58,0,0,1-14.45,17.51,103.81,103.81,0,0,1-17.25,14.86Q1194,363.63,1185,363.63Zm-103.74,97.1q6.38.79,14.46-3.58a78.4,78.4,0,0,0,16.85-12.87,173.12,173.12,0,0,0,17.77-20.56,221.52,221.52,0,0,0,17-26.66q-9.29.79-17.37,2.25a69.39,69.39,0,0,0-14.46,4.11,83.31,83.31,0,0,0-24.15,14.46q-10.61,9.15-15.92,18.31T1071,452.5Q1072,459.67,1081.25,460.73Zm141.68-193.68a10.75,10.75,0,0,1-4.51,6,8.26,8.26,0,0,1-11.81-4,9.87,9.87,0,0,1-.13-7.29A10.74,10.74,0,0,1,1211,256a7.12,7.12,0,0,1,6.63-.66,8,8,0,0,1,5,4.51A9.16,9.16,0,0,1,1222.93,267.05Z"/><path class="cls-1" d="M1244.22,364.42a25.1,25.1,0,0,1-10.22-4.24,20.68,20.68,0,0,1-5.84-6.64,19.51,19.51,0,0,1-2.25-8.09,51.08,51.08,0,0,1,.26-8.89,72.43,72.43,0,0,1,7.17-22.28q7.42-13.26,15.65-20.83a61.85,61.85,0,0,1,16.19-11.14,41,41,0,0,1,15.38-3.85,49.43,49.43,0,0,1,13,1.06,16.33,16.33,0,0,1,6.11,3.72,11.34,11.34,0,0,1,2.91,5.7q.8,3.58-1.32,9.15c1.76,2.84,2.52,6.9,2.25,12.21s-2.25,12.47-6,21.49a63.6,63.6,0,0,1-7.29,13.66,56.89,56.89,0,0,1-8.49,9.55,39.18,39.18,0,0,1-8.76,6,44.46,44.46,0,0,1-8.62,3.19A40.9,40.9,0,0,1,1244.22,364.42Zm18.83-57a119.07,119.07,0,0,0-13.53,21.23,36,36,0,0,0-3.18,8.09,23.06,23.06,0,0,0-.8,7.56,9.88,9.88,0,0,0,2.52,6c1.5,1.68,3.85,2.78,7,3.31a19.37,19.37,0,0,0,9.82-1.59,35.38,35.38,0,0,0,9.82-6.63q5.3-4.77,10.61-14.86,4.77-8.49,5.7-13.93a21.18,21.18,0,0,0,.14-8.49,6.87,6.87,0,0,0-2.66-4.24,10.92,10.92,0,0,0-2.92-1.46,4.53,4.53,0,0,1-2.38-1.33,10.28,10.28,0,0,1-1.07-2.38,5.21,5.21,0,0,1,.4-3.85,4.55,4.55,0,0,1,3-2.26c1.07-.17,2.13-.3,3.19-.39a12.57,12.57,0,0,1,3.18.13c1.59-2.12,2-3.54,1.06-4.25q-3.18-2.38-7.56-.39a39.6,39.6,0,0,0-8.75,5.57,68,68,0,0,0-8.1,7.82Z"/><path class="cls-1" d="M1394.45,280.05a12.3,12.3,0,0,1,5.17,8.49,30.87,30.87,0,0,1-.4,11.68,18.65,18.65,0,0,1-3.71,8,20,20,0,0,1-5.84,4.9,14.34,14.34,0,0,1-6.37,1.86,10.71,10.71,0,0,1-5.3-.93,3.17,3.17,0,0,1-2.13-2.38,10,10,0,0,1,0-3.19,25.15,25.15,0,0,1,1.06-4.24,14.44,14.44,0,0,0,2-4.91q.4-2.25-2.25-2.52-2.13,0-8.23,5.84a175,175,0,0,0-13.66,15q-7.56,9.15-15.52,20.42a253.88,253.88,0,0,0-13.8,21.63,9.92,9.92,0,0,1-2.25,4,8.58,8.58,0,0,1-2.52,1.59,4.91,4.91,0,0,1-3.18,0,6.18,6.18,0,0,1-4.25-2.12,12.24,12.24,0,0,1-2.39-4.51,20.8,20.8,0,0,1-.79-6q0-3.31.26-6.77a118.87,118.87,0,0,1,3.45-18,115.51,115.51,0,0,1,9-22.55A99.43,99.43,0,0,1,1334.75,287a27.47,27.47,0,0,1,4.51-4.51,31.91,31.91,0,0,1,4.38-2.78,5.67,5.67,0,0,1,4.64-.4,9.2,9.2,0,0,1,6.1,7.69q.8,5.58-4.77,14.06c-1.06,1.6-2.35,3.68-3.85,6.24s-3,5.35-4.64,8.36-3.1,6-4.51,9a75.89,75.89,0,0,0-3.45,8.49.74.74,0,0,0-.27.53q4.78-7.17,11.81-16.72a209.88,209.88,0,0,1,14.86-18,120.06,120.06,0,0,1,15.52-14.33q7.7-5.82,14.06-5.83A9.91,9.91,0,0,1,1394.45,280.05Z"/><path class="cls-2" d="M670.72,54.68l43.38,7.19L618.83,232.44H583.44l-42-170.57,45.5-7.19,23.68,110.17Z"/><path class="cls-2" d="M798.07,209.29c-20,17-34.86,23.15-57.48,23.15-15.69,0-30.6-7.19-38.85-18.63-7.18-9.58-10.37-20.75-10.37-36.72,0-17.3,8.78-39.91,21-53.49,12.24-13.83,31.13-22.35,48.69-22.35,27.94,0,43.64,12.24,43.64,33.8,0,23.95-24.48,42-70.25,51.89,1.6,10.11,9,17,18.1,17,12.51,0,22.35-4.53,38.58-17.83Zm7.72-148.48L757.89,95.4l-25.28-7.19,39.65-36.45ZM771.73,139c.26-6.39-4-10.65-10.38-10.65-13,0-24.21,15.44-27.41,38.32C756.83,161.12,770.93,150.75,771.73,139Z"/><path class="cls-2" d="M856.27,106a26.94,26.94,0,0,1,8,19.43v8c6.92-9.58,10.91-13.84,16.5-18.09A45.11,45.11,0,0,1,907.62,106c20.76,0,33.27,12.51,31.94,31.67-.27,3.72-.8,8.51-1.6,14.1l-12.24,80.63H885L895.65,163c.53-4.26,1.06-7.72,1.06-9.85.27-6.65-4-11.17-10.11-10.38-9.05,1.07-15.43,6.92-25,23.42l-9.85,66.26H811L821.94,159c.8-4.26,1.33-9.32,1.86-15.44.8-7.18.8-6.92.8-16.23q0-5.19-3.19-12.77Z"/><path class="cls-2" d="M1072.09,229.51c-10.11,1.86-15.43,2.13-21.82,1.86a27.82,27.82,0,0,1-20-9.31c-2.93-3.46-4-7.18-4-14.1-12.25,18.09-22.62,24.48-39.39,24.48-25.28,0-40.18-21.82-37.52-54,4-45.24,37.79-78.76,77.7-76.9,2.4,0,6.12.53,10.91,1.06l8.52-57.21h40.71L1067.84,175l-1.33,11.18c-2.13,14.37,1.06,19.16,13,18.36Zm-38.85-94.2a17,17,0,0,0-4-.8c-8.25-1.33-17.29,1.07-22.88,5.33-8,6.65-14.11,20.22-15.44,34.06s3.46,21.82,13,22.35c7.45.53,13.57-4.52,22.89-18.1Z"/><path class="cls-2" d="M1197.57,209.29c-20,17-34.86,23.15-57.47,23.15-15.7,0-30.61-7.19-38.86-18.63-7.18-9.58-10.37-20.75-10.37-36.72,0-17.3,8.78-39.91,21-53.49,12.24-13.83,31.13-22.35,48.69-22.35,28,0,43.65,12.24,43.65,33.8,0,23.95-24.49,42-70.26,51.89,1.6,10.11,9,17,18.1,17,12.51,0,22.35-4.53,38.58-17.83ZM1171.23,139c.26-6.39-4-10.65-10.38-10.65-13,0-24.21,15.44-27.41,38.32C1156.33,161.12,1170.43,150.75,1171.23,139Z"/><path class="cls-2" d="M1251.6,232.44h-40.71l27.4-183.08H1279Z"/><path class="cls-2" d="M1387,118.28c9.31,10.65,13,22.35,13,40.18,0,17-8,37.52-19.69,51.36-12.77,14.37-30.07,22.62-48.7,22.62-34.86,0-55.61-20.49-55.61-55.08,0-41.78,31.13-76.11,69.18-76.11C1363.54,101.25,1376.85,106.84,1387,118.28Zm-69.18,56.95c0,14.9,6.12,24,16,24,14.64,0,24.48-16.24,24.48-40.18,0-15.44-6.65-24.75-17.56-24.75C1327.89,134.25,1317.78,152.34,1317.78,175.23Z"/><path class="cls-1" d="M221.76,380.72l142.81-261.6,40.47,6.7L292.47,13.25a45.56,45.56,0,0,0-64.25,0l-114,114,51.26-8.09Z"/><path class="cls-2" d="M13.25,228.22a45.56,45.56,0,0,0,0,64.25l109.8,109.8L66.92,174.55Z"/><path class="cls-2" d="M507.44,228.22l-58.57-58.56L253.16,520.08a45.41,45.41,0,0,0,39.31-12.64l215-215A45.56,45.56,0,0,0,507.44,228.22Z"/></g></g></svg>