<?xml version="1.0" encoding="UTF-8" standalone="no"?>
<!-- Created with Inkscape (http://www.inkscape.org/) -->

<svg
   xmlns:dc="http://purl.org/dc/elements/1.1/"
   xmlns:cc="http://creativecommons.org/ns#"
   xmlns:rdf="http://www.w3.org/1999/02/22-rdf-syntax-ns#"
   xmlns:svg="http://www.w3.org/2000/svg"
   xmlns="http://www.w3.org/2000/svg"
   xmlns:sodipodi="http://sodipodi.sourceforge.net/DTD/sodipodi-0.dtd"
   xmlns:inkscape="http://www.inkscape.org/namespaces/inkscape"
   version="1.1"
   id="svg2"
   xml:space="preserve"
   width="302.35999"
   height="151.18668"
   viewBox="0 0 302.35999 151.18668"
   sodipodi:docname="p4s_sticker_blanco_Original.svg"
   inkscape:version="0.92.3 (2405546, 2018-03-11)"><metadata
     id="metadata8"><rdf:RDF><cc:Work
         rdf:about=""><dc:format>image/svg+xml</dc:format><dc:type
           rdf:resource="http://purl.org/dc/dcmitype/StillImage" /><dc:title /></cc:Work></rdf:RDF></metadata><defs
     id="defs6"><clipPath
       clipPathUnits="userSpaceOnUse"
       id="clipPath18"><path
         d="M 0,113.39 H 226.77 V 0 H 0 Z"
         id="path16"
         inkscape:connector-curvature="0" /></clipPath><clipPath
       clipPathUnits="userSpaceOnUse"
       id="clipPath42"><path
         d="M 14.9995,96.3896 H 124.74 V 49.7002 H 14.9995 Z"
         id="path40"
         inkscape:connector-curvature="0" /></clipPath></defs><sodipodi:namedview
     pagecolor="#ffffff"
     bordercolor="#666666"
     borderopacity="1"
     objecttolerance="10"
     gridtolerance="10"
     guidetolerance="10"
     inkscape:pageopacity="0"
     inkscape:pageshadow="2"
     inkscape:window-width="1860"
     inkscape:window-height="1048"
     id="namedview4"
     showgrid="false"
     inkscape:zoom="1.7633236"
     inkscape:cx="121.68844"
     inkscape:cy="153.82723"
     inkscape:window-x="60"
     inkscape:window-y="32"
     inkscape:window-maximized="1"
     inkscape:current-layer="g10" /><g
     id="g10"
     inkscape:groupmode="layer"
     inkscape:label="p4s_sticker_Original"
     transform="matrix(1.3333333,0,0,-1.3333333,0,151.18667)"><g
       id="g12"><g
         id="g14"
         clip-path="url(#clipPath18)"><g
           id="g20"
           transform="translate(124.7402,82.1055)"><path
             d="m 0,0 c 0,7.889 -6.395,14.313 -14.283,14.284 -7.218,-0.027 -11.352,-2.067 -14.624,-4.472 -8.662,-6.364 -6.823,-9.255 -13.216,-10.613 -7.073,-1.504 -7.943,0.968 -19.979,6.294 -18.486,8.18 -33.625,6.395 -43.057,-4.67 -6.058,-7.108 -5.568,-17.1 -1.672,-21.862 2.938,-3.59 6.374,-3.098 7.033,-6.579 1.212,-6.407 -3.806,-18.616 -4.382,-24.028 -0.948,-8.911 19.737,3.488 25.121,6.262 5.386,2.774 10.669,4.299 14.749,1.362 4.079,-2.938 -0.163,-12.157 1.468,-15.585 1.224,-2.569 11.929,1.229 18.293,5.819 2.23,1.608 2.083,10.281 3.004,9.908 4.825,-1.964 9.266,-4.273 18.605,-3.553 11.293,0.871 20.509,9.183 20.509,20.51 0,5.453 -2.133,10.403 -5.604,14.076 C -3.277,-10.529 0,-5.648 0,0"
             style="fill:#00415f;fill-opacity:1;fill-rule:nonzero;stroke:none"
             id="path22"
             inkscape:connector-curvature="0" /></g><g
           id="g24"
           transform="translate(43.8696,74.103)"><path
             d="m 0,0 -2.821,-15.771 c 6.86,0.544 11.353,6.932 11.353,14.2 0,5.026 -4.893,8.258 -10.87,8.258 -11.004,0 -15.187,-6.984 -15.144,-15.526 0.017,-3.464 0.883,-4.007 0.95,-4.619 -4.687,0 -7.757,2.678 -7.757,7.568 0,9.033 9.085,19.109 20.425,19.372 16.856,0.392 20.425,-8.097 20.425,-15.093 0,-8.626 -7.893,-19.182 -20.12,-19.182 h -0.339 l -3.654,-15.932 -10.27,-3.426 7.769,36.834 z"
             style="fill:#f1f2f2;fill-opacity:1;fill-rule:nonzero;stroke:none"
             id="path26"
             inkscape:connector-curvature="0" /></g><g
           id="g28"
           transform="translate(53.0044,45.0752)"><path
             d="m 0,0 c 2.446,7.471 9.917,18.271 9.917,28.187 0,1.358 -0.136,2.717 -0.476,4.076 3.94,0 7.732,-2.179 7.54,-6.453 C 16.607,17.447 13.09,11.478 9.626,5.026 l 8.409,1.766 5.127,24.112 10.053,1.359 L 23.326,-13.783 12.565,-18.68 16.573,0 Z"
             style="fill:#f1f2f2;fill-opacity:1;fill-rule:nonzero;stroke:none"
             id="path30"
             inkscape:connector-curvature="0" /></g><g
           id="g32"
           transform="translate(112.8086,76.9072)"><path
             d="m 0,0 c -1.223,0 -2.241,0.407 -3.125,1.425 1.835,1.088 3.058,3.601 3.058,5.843 0,2.376 -1.291,4.549 -5.027,4.549 -3.735,0 -6.249,-2.105 -6.249,-6.18 0,-9.985 15.282,-11.343 15.282,-26.014 0,-11.411 -9.237,-16.98 -19.085,-16.98 -7.743,0 -14.399,3.396 -14.399,11.682 0,7.335 5.23,11.139 9.985,11.139 2.376,0 5.772,-0.951 5.976,-4.483 -3.667,0 -7.947,-1.698 -7.947,-6.384 0,-3.396 2.175,-6.521 6.52,-6.521 4.552,0 7.879,3.328 7.879,9.033 0,11.616 -13.923,15.759 -13.923,25.743 0,7.064 6.929,12.158 15.689,12.158 3.194,0 10.935,-0.679 10.935,-8.151 C 5.569,2.92 3.397,0 0,0"
             style="fill:#f1f2f2;fill-opacity:1;fill-rule:nonzero;stroke:none"
             id="path34"
             inkscape:connector-curvature="0" /></g><g
           id="g36"><g
             id="g38" /><g
             id="g50"><g
               clip-path="url(#clipPath42)"
               id="g48"
               style="opacity:0.05000311"><g
                 transform="translate(24.9419,54.4873)"
                 id="g46"><path
                   d="m 0,0 c -3.031,1.835 -4.095,2.989 -7.032,6.579 -3.896,4.762 -4.387,14.754 1.671,21.862 9.432,11.065 24.571,12.851 43.057,4.67 12.036,-5.326 12.906,-7.798 19.979,-6.294 6.393,1.358 4.554,4.249 13.216,10.613 3.272,2.405 7.406,4.445 14.625,4.472 7.888,0.03 14.282,-6.395 14.282,-14.284 0,-5.648 -3.277,-10.529 -8.035,-12.847 0,0 -64.587,-31.22 -91.763,-14.771"
                   style="fill:#f1f2f2;fill-opacity:1;fill-rule:nonzero;stroke:none"
                   id="path44"
                   inkscape:connector-curvature="0" /></g></g></g></g><g
           id="g52"
           transform="translate(141.6152,42.3154)"><path
             d="M 0,0 C 2.639,0 3.994,-1.578 3.994,-4.34 V -4.883 H 1.43 v 0.716 c 0,1.232 -0.492,1.701 -1.356,1.701 -0.863,0 -1.356,-0.469 -1.356,-1.701 0,-3.551 5.302,-4.217 5.302,-9.148 0,-2.762 -1.381,-4.34 -4.044,-4.34 -2.664,0 -4.044,1.578 -4.044,4.34 v 1.06 h 2.564 v -1.233 c 0,-1.233 0.542,-1.677 1.405,-1.677 0.864,0 1.406,0.444 1.406,1.677 0,3.55 -5.301,4.217 -5.301,9.148 C -3.994,-1.578 -2.639,0 0,0"
             style="fill:#00415f;fill-opacity:1;fill-rule:nonzero;stroke:none"
             id="path54"
             inkscape:connector-curvature="0" /></g><g
           id="g56"
           transform="translate(146.4004,42.1182)"><path
             d="M 0,0 H 8.384 V -2.466 H 5.548 V -17.261 H 2.836 v 14.795 l -2.836,0 z"
             style="fill:#00415f;fill-opacity:1;fill-rule:nonzero;stroke:none"
             id="path58"
             inkscape:connector-curvature="0" /></g><g
           id="g60"
           transform="translate(157.6211,30.3311)"><path
             d="M 0,0 H 2.614 L 1.307,8.729 Z M 6.189,-5.474 H 3.452 l -0.468,3.132 h -3.329 l -0.468,-3.132 h -2.491 l 2.762,17.261 h 3.97 z"
             style="fill:#00415f;fill-opacity:1;fill-rule:nonzero;stroke:none"
             id="path62"
             inkscape:connector-curvature="0" /></g><g
           id="g64"
           transform="translate(167.7832,39.6523)"><path
             d="m 0,0 v -5.302 h 1.06 c 1.01,0 1.628,0.445 1.628,1.825 v 1.702 C 2.688,-0.542 2.268,0 1.307,0 Z m 2.959,-14.795 c -0.148,0.443 -0.247,0.715 -0.247,2.12 v 2.713 c 0,1.603 -0.542,2.194 -1.775,2.194 H 0 v -7.027 H -2.713 V 2.466 h 4.094 c 2.81,0 4.018,-1.307 4.018,-3.97 V -2.86 c 0,-1.776 -0.567,-2.935 -1.775,-3.502 1.356,-0.567 1.8,-1.873 1.8,-3.674 v -2.663 c 0,-0.838 0.025,-1.455 0.297,-2.096 z"
             style="fill:#00415f;fill-opacity:1;fill-rule:nonzero;stroke:none"
             id="path66"
             inkscape:connector-curvature="0" /></g><g
           id="g68"
           transform="translate(174.1953,42.1182)"><path
             d="M 0,0 H 8.384 V -2.466 H 5.548 V -17.261 H 2.836 v 14.795 l -2.836,0 z"
             style="fill:#00415f;fill-opacity:1;fill-rule:nonzero;stroke:none"
             id="path70"
             inkscape:connector-curvature="0" /></g><g
           id="g72"
           transform="translate(186.3535,42.1182)"><path
             d="m 0,0 v -13.315 c 0,-1.234 0.543,-1.677 1.406,-1.677 0.863,0 1.406,0.443 1.406,1.677 V 0 h 2.564 v -13.143 c 0,-2.761 -1.381,-4.339 -4.044,-4.339 -2.663,0 -4.044,1.578 -4.044,4.339 l 0,13.143 z"
             style="fill:#00415f;fill-opacity:1;fill-rule:nonzero;stroke:none"
             id="path74"
             inkscape:connector-curvature="0" /></g><g
           id="g76"
           transform="translate(196.293,39.6523)"><path
             d="m 0,0 v -5.844 h 1.281 c 0.864,0 1.332,0.395 1.332,1.627 v 2.589 C 2.613,-0.395 2.145,0 1.281,0 Z M 5.326,-1.8 V -4.044 C 5.326,-6.806 3.994,-8.31 1.281,-8.31 H 0 v -6.485 H -2.713 V 2.466 h 3.994 c 2.713,0 4.045,-1.504 4.045,-4.266"
             style="fill:#00415f;fill-opacity:1;fill-rule:nonzero;stroke:none"
             id="path78"
             inkscape:connector-curvature="0" /></g><g
           id="g80"
           transform="translate(206.5273,42.3154)"><path
             d="M 0,0 C 2.639,0 3.994,-1.578 3.994,-4.34 V -4.883 H 1.43 v 0.716 c 0,1.232 -0.492,1.701 -1.356,1.701 -0.863,0 -1.356,-0.469 -1.356,-1.701 0,-3.551 5.302,-4.217 5.302,-9.148 0,-2.762 -1.381,-4.34 -4.044,-4.34 -2.664,0 -4.044,1.578 -4.044,4.34 v 1.06 h 2.564 v -1.233 c 0,-1.233 0.542,-1.677 1.405,-1.677 0.864,0 1.406,0.444 1.406,1.677 0,3.55 -5.301,4.217 -5.301,9.148 C -3.994,-1.578 -2.639,0 0,0"
             style="fill:#00415f;fill-opacity:1;fill-rule:nonzero;stroke:none"
             id="path82"
             inkscape:connector-curvature="0" /></g><g
           id="g84"
           transform="translate(140.6777,86.084)"><path
             d="m 0,0 v -5.844 h 1.283 c 0.863,0 1.331,0.395 1.331,1.627 v 2.59 C 2.614,-0.395 2.146,0 1.283,0 Z M 5.326,-1.8 V -4.044 C 5.326,-6.806 3.995,-8.31 1.283,-8.31 H 0 v -6.485 H -2.712 V 2.466 h 3.995 c 2.712,0 4.043,-1.504 4.043,-4.266"
             style="fill:#00415f;fill-opacity:1;fill-rule:nonzero;stroke:none"
             id="path86"
             inkscape:connector-curvature="0" /></g><g
           id="g88"
           transform="translate(149.5322,76.7632)"><path
             d="M 0,0 H 2.614 L 1.308,8.729 Z M 6.189,-5.474 H 3.452 l -0.469,3.132 h -3.328 l -0.468,-3.132 h -2.491 l 2.762,17.261 h 3.97 z"
             style="fill:#00415f;fill-opacity:1;fill-rule:nonzero;stroke:none"
             id="path90"
             inkscape:connector-curvature="0" /></g><g
           id="g92"
           transform="translate(159.6934,86.084)"><path
             d="m 0,0 v -5.302 h 1.061 c 1.011,0 1.627,0.445 1.627,1.825 v 1.702 C 2.688,-0.542 2.27,0 1.308,0 Z m 2.959,-14.795 c -0.147,0.444 -0.246,0.715 -0.246,2.121 v 2.712 c 0,1.603 -0.543,2.194 -1.775,2.194 H 0 v -7.027 H -2.712 V 2.466 H 1.381 C 4.192,2.466 5.4,1.159 5.4,-1.504 V -2.86 c 0,-1.776 -0.566,-2.935 -1.775,-3.502 1.356,-0.567 1.801,-1.874 1.801,-3.674 v -2.663 c 0,-0.838 0.024,-1.455 0.295,-2.096 z"
             style="fill:#00415f;fill-opacity:1;fill-rule:nonzero;stroke:none"
             id="path94"
             inkscape:connector-curvature="0" /></g><g
           id="g96"
           transform="translate(166.1064,88.5498)"><path
             d="M 0,0 H 8.384 V -2.466 H 5.548 V -17.261 H 2.836 v 14.795 l -2.836,0 z"
             style="fill:#00415f;fill-opacity:1;fill-rule:nonzero;stroke:none"
             id="path98"
             inkscape:connector-curvature="0" /></g><g
           id="g100"
           transform="translate(178.0918,83.791)"><path
             d="M 0,0 V -12.502 H -2.44 V 4.759 H 0.962 L 3.748,-5.573 V 4.759 H 6.165 V -12.502 H 3.379 Z"
             style="fill:#00415f;fill-opacity:1;fill-rule:nonzero;stroke:none"
             id="path102"
             inkscape:connector-curvature="0" /></g><g
           id="g104"
           transform="translate(188.918,81.2754)"><path
             d="M 0,0 H 3.724 V -2.466 H 0 V -7.521 H 4.686 V -9.986 H -2.712 V 7.274 H 4.686 V 4.809 L 0,4.809 Z"
             style="fill:#00415f;fill-opacity:1;fill-rule:nonzero;stroke:none"
             id="path106"
             inkscape:connector-curvature="0" /></g><g
           id="g108"
           transform="translate(197.9941,86.084)"><path
             d="m 0,0 v -5.302 h 1.061 c 1.011,0 1.627,0.445 1.627,1.825 v 1.702 C 2.688,-0.542 2.27,0 1.308,0 Z m 2.959,-14.795 c -0.147,0.444 -0.246,0.715 -0.246,2.121 v 2.712 c 0,1.603 -0.543,2.194 -1.775,2.194 H 0 v -7.027 H -2.712 V 2.466 H 1.381 C 4.192,2.466 5.4,1.159 5.4,-1.504 V -2.86 c 0,-1.776 -0.566,-2.935 -1.775,-3.502 1.356,-0.567 1.801,-1.874 1.801,-3.674 v -2.663 c 0,-0.838 0.024,-1.455 0.295,-2.096 z"
             style="fill:#00415f;fill-opacity:1;fill-rule:nonzero;stroke:none"
             id="path110"
             inkscape:connector-curvature="0" /></g><g
           id="g112"
           transform="translate(208.8467,88.7471)"><path
             d="M 0,0 C 2.639,0 3.995,-1.578 3.995,-4.34 V -4.882 H 1.431 v 0.715 c 0,1.232 -0.494,1.701 -1.357,1.701 -0.863,0 -1.356,-0.469 -1.356,-1.701 0,-3.551 5.302,-4.217 5.302,-9.148 0,-2.762 -1.381,-4.34 -4.044,-4.34 -2.664,0 -4.044,1.578 -4.044,4.34 v 1.06 h 2.564 v -1.233 c 0,-1.233 0.542,-1.677 1.405,-1.677 0.864,0 1.406,0.444 1.406,1.677 0,3.55 -5.302,4.217 -5.302,9.148 C -3.995,-1.578 -2.639,0 0,0"
             style="fill:#00415f;fill-opacity:1;fill-rule:nonzero;stroke:none"
             id="path114"
             inkscape:connector-curvature="0" /></g><g
           id="g116"
           transform="translate(130.6143,96.3628)"><path
             d="M 0,0 V -79.18"
             style="fill:none;stroke:#00415f;stroke-width:1.52199996;stroke-linecap:butt;stroke-linejoin:miter;stroke-miterlimit:10;stroke-dasharray:none;stroke-opacity:1"
             id="path118"
             inkscape:connector-curvature="0" /></g><g
           id="g120"
           transform="translate(140.6777,57.4717)"><path
             d="M 0,0 H 3.502 V -2.466 H 0 V -9.592 H -2.712 V 7.669 H 4.464 V 5.203 L 0,5.203 Z"
             style="fill:#00415f;fill-opacity:1;fill-rule:nonzero;stroke:none"
             id="path122"
             inkscape:connector-curvature="0" /></g><g
           id="g124"
           transform="translate(148.9404,51.8496)"><path
             d="m 0,0 c 0,-1.232 0.543,-1.701 1.405,-1.701 0.864,0 1.407,0.469 1.407,1.701 v 9.321 c 0,1.233 -0.543,1.701 -1.407,1.701 C 0.543,11.022 0,10.554 0,9.321 Z m -2.712,9.148 c 0,2.762 1.455,4.34 4.117,4.34 2.664,0 4.118,-1.578 4.118,-4.34 V 0.173 c 0,-2.762 -1.454,-4.34 -4.118,-4.34 -2.662,0 -4.117,1.578 -4.117,4.34 z"
             style="fill:#00415f;fill-opacity:1;fill-rule:nonzero;stroke:none"
             id="path126"
             inkscape:connector-curvature="0" /></g><g
           id="g128"
           transform="translate(158.9297,62.6748)"><path
             d="m 0,0 v -5.302 h 1.06 c 1.01,0 1.628,0.445 1.628,1.825 v 1.702 C 2.688,-0.542 2.268,0 1.307,0 Z m 2.959,-14.795 c -0.148,0.443 -0.247,0.715 -0.247,2.121 v 2.712 c 0,1.603 -0.542,2.194 -1.775,2.194 H 0 v -7.027 H -2.713 V 2.466 h 4.094 c 2.81,0 4.018,-1.307 4.018,-3.97 V -2.86 c 0,-1.776 -0.567,-2.935 -1.775,-3.502 1.356,-0.567 1.8,-1.874 1.8,-3.674 v -2.663 c 0,-0.838 0.025,-1.455 0.297,-2.096 z"
             style="fill:#00415f;fill-opacity:1;fill-rule:nonzero;stroke:none"
             id="path130"
             inkscape:connector-curvature="0" /></g><g
           id="g132"
           transform="translate(100.5483,28.665)"><path
             d="m 0,0 v -2.618 h 0.574 c 0.387,0 0.596,0.178 0.596,0.729 v 1.16 C 1.17,-0.177 0.961,0 0.574,0 Z m 2.385,-0.806 v -1.006 c 0,-1.236 -0.596,-1.91 -1.811,-1.91 H 0 v -2.903 h -1.214 v 7.729 h 1.788 c 1.215,0 1.811,-0.673 1.811,-1.91"
             style="fill:#00415f;fill-opacity:1;fill-rule:nonzero;stroke:none"
             id="path134"
             inkscape:connector-curvature="0" /></g><g
           id="g136"
           transform="translate(105.5269,24.5469)"><path
             d="M 0,0 V 2.858 L -1.204,0 Z m -2.319,0 2.208,5.223 H 1.214 V 0 H 1.789 V -1.104 H 1.214 V -2.507 H 0 v 1.403 h -2.319 z"
             style="fill:#00415f;fill-opacity:1;fill-rule:nonzero;stroke:none"
             id="path138"
             inkscape:connector-curvature="0" /></g><g
           id="g140"
           transform="translate(109.5005,29.8564)"><path
             d="M 0,0 C 1.18,0 1.788,-0.705 1.788,-1.942 V -2.186 H 0.639 v 0.322 c 0,0.551 -0.22,0.76 -0.607,0.76 -0.387,0 -0.606,-0.209 -0.606,-0.76 0,-1.591 2.372,-1.889 2.372,-4.098 0,-1.236 -0.618,-1.942 -1.809,-1.942 -1.193,0 -1.811,0.706 -1.811,1.942 v 0.475 h 1.148 v -0.552 c 0,-0.552 0.243,-0.75 0.629,-0.75 0.386,0 0.629,0.198 0.629,0.75 0,1.591 -2.373,1.889 -2.373,4.097 C -1.789,-0.705 -1.182,0 0,0"
             style="fill:#00415f;fill-opacity:1;fill-rule:nonzero;stroke:none"
             id="path142"
             inkscape:connector-curvature="0" /></g><path
           d="m 113.109,22.04 h -1.17 v 1.171 h 1.17 z"
           style="fill:#00415f;fill-opacity:1;fill-rule:nonzero;stroke:none"
           id="path144"
           inkscape:connector-curvature="0" /><g
           id="g146"
           transform="translate(117.4023,24.9219)"><path
             d="m 0,0 v -1.027 c 0,-1.237 -0.618,-1.943 -1.811,-1.943 -1.191,0 -1.81,0.706 -1.81,1.943 v 4.019 c 0,1.237 0.619,1.943 1.81,1.943 C -0.618,4.935 0,4.229 0,2.992 V 2.241 H -1.148 V 3.07 c 0,0.552 -0.243,0.76 -0.629,0.76 -0.387,0 -0.63,-0.208 -0.63,-0.76 v -4.174 c 0,-0.552 0.243,-0.75 0.63,-0.75 0.386,0 0.629,0.198 0.629,0.75 l 0,1.104 z"
             style="fill:#00415f;fill-opacity:1;fill-rule:nonzero;stroke:none"
             id="path148"
             inkscape:connector-curvature="0" /></g><g
           id="g150"
           transform="translate(119.2559,23.8174)"><path
             d="m 0,0 c 0,-0.552 0.242,-0.762 0.63,-0.762 0.386,0 0.629,0.21 0.629,0.762 v 4.175 c 0,0.552 -0.243,0.76 -0.629,0.76 C 0.242,4.935 0,4.727 0,4.175 Z m -1.214,4.097 c 0,1.237 0.651,1.942 1.844,1.942 1.192,0 1.844,-0.705 1.844,-1.942 v -4.02 c 0,-1.236 -0.652,-1.942 -1.844,-1.942 -1.193,0 -1.844,0.706 -1.844,1.942 z"
             style="fill:#00415f;fill-opacity:1;fill-rule:nonzero;stroke:none"
             id="path152"
             inkscape:connector-curvature="0" /></g><g
           id="g154"
           transform="translate(115.75,100.6396)"><path
             d="m 0,0 c -7.858,-0.031 -11.5,0.027 -17,-2.25 -11.054,-4.577 -20.625,-14 -35.878,-7.186 -20.305,9.072 -36.543,7.399 -46.811,-5.402 -6.596,-8.224 -7.333,-21.265 -3.092,-26.773 3.198,-4.155 5.88,-5.301 6.596,-9.328 1.32,-7.414 -3.946,-17.045 -4.573,-23.305 -1.032,-10.311 18.679,-0.264 24.542,2.945 5.863,3.21 9.273,5.01 13.714,1.611 4.44,-3.398 1.417,-10.981 4.751,-13.769 4.334,-3.624 18.336,-0.323 25.264,4.985 C -22.75,-87.25 4.75,-87.75 4.75,-87.75 h 97 v 88 C 101.75,0.25 1.512,0.006 0,0 Z"
             style="fill:none;stroke:#00415f;stroke-width:1;stroke-linecap:butt;stroke-linejoin:miter;stroke-miterlimit:10;stroke-dasharray:none;stroke-opacity:1"
             id="path156"
             inkscape:connector-curvature="0" /></g></g></g><path
       style="fill:#ffffff;stroke-width:0.40100795"
       d="m 155.76736,133.00175 c -4.87915,-0.30472 -14.4639,-1.47837 -19.24838,-2.35696 -10.30328,-1.89201 -18.68764,-4.8985 -23.48828,-8.42249 l -1.96738,-1.44419 -2.91148,1.80458 c -9.91648,6.14635 -25.641685,8.86375 -30.012135,5.18626 -1.654306,-1.392 -1.931133,-2.25346 -2.613112,-8.13168 -0.874333,-7.53618 -2.281839,-9.90532 -7.169123,-12.0672 -1.594893,-0.7055 -2.461519,-0.82652 -4.747457,-0.66296 -2.609078,0.18668 -3.47086,0.53805 -12.864173,5.24506 -13.955873,6.99332 -20.84238,9.38439 -25.875267,8.98418 -1.77666,-0.14127 -2.353205,-0.38203 -3.15946,-1.31936 -0.903879,-1.05082 -0.967837,-1.38241 -0.766021,-3.97145 0.131835,-1.69127 1.042403,-5.52771 2.269051,-9.56005 C 26.892318,94.194279 27.640039,89.874149 26.857536,85.234944 26.282352,81.824872 25.26632,80.125297 21.08798,75.583878 19.392235,73.740777 17.56403,71.48066 17.025303,70.561389 15.426895,67.833914 14.683289,64.211641 14.710522,59.285576 14.773111,47.964051 19.559094,37.944048 28.174113,31.098007 41.376851,20.606276 59.568438,20.099668 81.91315,29.601458 c 6.738261,2.865355 9.146759,3.479957 14.552085,3.713416 8.029175,0.346784 12.760255,-1.08238 25.617455,-7.738515 11.89937,-6.160268 15.42849,-7.275972 24.04698,-7.602258 2.65408,-0.10048 35.90872,-0.273679 73.89921,-0.384888 l 69.07362,-0.202197 v 57.942262 57.942262 l -65.66505,-0.0723 c -36.11578,-0.0397 -66.56732,-0.12863 -67.67009,-0.19751 z M 175.21625,75.499762 V 22.540077 l -1.10278,0.126888 -1.10277,0.126888 -0.10312,52.331536 c -0.0567,28.782341 -0.0173,52.557101 0.0877,52.832801 0.10493,0.27569 0.64758,0.50126 1.20589,0.50126 h 1.01511 z M 91.991611,121.0376 c 3.922302,-1.28579 9.594279,-3.99061 12.974149,-6.18704 3.10389,-2.01709 3.73254,-3.26847 4.80089,-9.55661 0.42219,-2.48491 0.86043,-4.61084 0.97388,-4.72429 0.11344,-0.11344 1.80032,0.43638 3.74861,1.22182 6.73355,2.7146 9.2104,3.18322 16.81674,3.18176 8.04252,-0.002 10.60446,-0.5082 16.04031,-3.17212 6.32798,-3.101132 10.46871,-7.124452 13.21567,-12.840957 2.88787,-6.009725 3.3563,-13.099261 1.29245,-19.560385 -1.04231,-3.26307 -3.60211,-7.970707 -5.0433,-9.274969 -0.46373,-0.419667 -0.84315,-0.89837 -0.84315,-1.063786 0,-0.165412 0.79115,-0.764397 1.75812,-1.331074 5.46291,-3.201479 9.00867,-10.364944 8.55903,-17.291747 -0.37147,-5.722622 -3.07355,-10.737633 -7.56814,-14.046365 -4.04823,-2.980138 -6.09106,-3.570947 -12.3732,-3.578462 -10.83288,-0.01296 -17.36744,3.234824 -26.82713,13.333524 -3.91829,4.182974 -4.89198,5.002223 -6.81714,5.735851 -2.80586,1.069244 -8.84047,1.486963 -11.10679,0.768819 -0.86094,-0.272814 -5.625559,-2.444222 -10.588032,-4.825352 -10.220859,-4.904246 -15.10866,-6.8228 -21.453925,-8.421067 -17.554858,-4.421776 -32.062979,-1.05542 -42.191143,9.789719 -3.218406,3.446238 -5.801313,8.027676 -6.717835,11.915775 -1.213615,5.148441 -0.61329,12.068723 1.387093,15.989794 1.111932,2.179571 6.368575,7.896139 9.027502,9.817364 l 2.203164,1.591906 -0.003,3.019686 c -0.0043,4.307767 -0.515391,7.057716 -3.222249,17.338168 -1.318603,5.007958 -2.509797,10.180148 -2.647096,11.493758 -0.230111,2.20159 -0.168475,2.46954 0.788102,3.42612 2.784929,2.78493 10.654345,0.31508 27.611834,-8.66609 10.403438,-5.509951 13.019894,-6.479576 17.573231,-6.512414 2.864725,-0.02065 3.728383,0.135372 5.413026,0.977938 3.921665,1.961396 4.642084,4.561216 3.615235,13.046536 -1.044686,8.63271 -0.454755,10.05622 4.004497,9.66296 1.323326,-0.11671 3.842707,-0.68315 5.598624,-1.25877 z m 42.241659,-1.05347 c 0.11024,-1.70262 0.22022,-1.87865 1.3099,-2.09659 0.78856,-0.15771 1.32249,-0.58758 1.58394,-1.27523 1.1287,-2.96872 -0.30923,-5.39621 -3.19646,-5.39621 h -1.62225 v 5.4415 c 0,5.41366 0.005,5.44084 0.90226,5.31336 0.76616,-0.10881 0.92042,-0.40854 1.02261,-1.98683 z m 8.10032,1.05667 c 0,-0.55139 0.18046,-1.00252 0.40101,-1.00252 0.22056,0 0.40101,-0.36091 0.40101,-0.80202 0,-0.44111 -0.18045,-0.80201 -0.40101,-0.80201 -0.23763,0 -0.40101,-1.47037 -0.40101,-3.60907 0,-3.26328 -0.0721,-3.60908 -0.75291,-3.60908 -0.98621,0 -1.26881,0.41622 -2.78458,4.10118 -1.73467,4.21713 -1.69951,4.721 0.32943,4.721 1.44363,0 1.60403,0.10025 1.60403,1.00252 0,0.73518 0.21387,1.00252 0.80202,1.00252 0.58814,0 0.80201,-0.26734 0.80201,-1.00252 z m 5.28178,0.33885 c 1.23214,-1.11506 0.9518,-3.2079 -0.67018,-5.00325 -1.40168,-1.55148 -1.7839,-2.87284 -0.97553,-3.37244 0.23567,-0.14566 0.52698,0.114 0.64828,0.57784 0.30145,1.15277 1.73077,1.12938 1.73077,-0.0283 0,-2.09479 -2.49526,-3.05017 -4.01008,-1.53535 -1.28487,1.28487 -1.01995,2.90748 0.82223,5.03595 1.60674,1.85644 1.93052,3.18471 0.77631,3.18471 -0.32781,0 -0.65368,-0.40602 -0.72416,-0.90227 -0.19471,-1.37101 -1.67639,-1.2217 -1.67639,0.16891 0,2.20195 2.46501,3.33463 4.07875,1.87421 z m 3.13939,-0.33885 c 0,-0.73518 -0.21387,-1.00252 -0.80201,-1.00252 -0.58815,0 -0.80202,0.26734 -0.80202,1.00252 0,0.73518 0.21387,1.00252 0.80202,1.00252 0.58814,0 0.80201,-0.26734 0.80201,-1.00252 z m 4.98423,0.47134 c 0.4667,-0.34126 0.74502,-1.09398 0.77841,-2.10529 0.0436,-1.3216 -0.0761,-1.57412 -0.7461,-1.57412 -0.56969,0 -0.85658,0.33777 -1.00252,1.18029 -0.41203,2.3787 -1.00646,0.97107 -1.00646,-2.38331 0,-3.26269 0.53472,-4.5882 1.0206,-2.52997 0.1362,0.57694 0.51406,0.92594 1.00252,0.92594 0.63977,0 0.77142,-0.25478 0.71588,-1.38537 -0.11371,-2.31467 -2.5112,-3.25352 -4.14253,-1.62219 -0.68945,0.68945 -0.80201,1.33669 -0.80201,4.61159 0,3.2749 0.11256,3.92214 0.80201,4.61159 0.92428,0.92428 2.33228,1.0371 3.3802,0.27084 z m 5.84299,-0.27084 c 0.68945,-0.68945 0.80201,-1.33669 0.80201,-4.61159 0,-3.2749 -0.11256,-3.92214 -0.80201,-4.61159 -0.93984,-0.93983 -2.33579,-1.03453 -3.43218,-0.23283 -0.68627,0.50181 -0.77841,1.07523 -0.77841,4.84442 0,3.7692 0.0921,4.34261 0.77841,4.84442 1.09639,0.8017 2.49234,0.70701 3.43218,-0.23283 z m 29.9286,-3.46084 c 2.23651,-1.06129 3.19691,-3.7884 2.49188,-7.07586 -0.34222,-1.59569 -0.94476,-2.50751 -3.37228,-5.10327 -3.03809,-3.24864 -3.66027,-4.45689 -3.21291,-6.239342 0.21921,-0.873399 0.4505,-1.00827 1.54726,-0.902267 1.13641,0.109836 1.31332,0.291272 1.49002,1.528161 0.1952,1.366398 0.24824,1.403528 2.00504,1.403528 h 1.80453 l -0.14249,-1.604032 c -0.31989,-3.600887 -2.28954,-5.226148 -5.96426,-4.921414 -2.64217,0.21911 -3.99441,1.381159 -4.56564,3.923485 -0.72305,3.218081 0.20414,5.402931 3.93322,9.268321 1.88699,1.95596 2.62468,3.03874 2.79802,4.10693 0.27632,1.70278 -0.33849,2.66048 -1.70795,2.66048 -1.10472,0 -1.76954,-1.05338 -1.76954,-2.80376 0,-1.22546 -0.0367,-1.24978 -1.70429,-1.12913 l -1.70428,0.12331 0.0553,2.10709 c 0.0319,1.21601 0.34149,2.54385 0.73203,3.13989 1.3302,2.03015 4.71909,2.73612 7.28633,1.51788 z m 62.23284,-0.43055 c 1.80735,-1.33975 2.0283,-2.74447 2.05279,-13.05119 l 0.0226,-9.523942 h -1.80453 -1.80454 v 9.249542 c 0,5.60909 -0.16338,9.55483 -0.41512,10.0252 -0.46401,0.86703 -1.97604,1.03115 -2.71274,0.29445 -0.34738,-0.34738 -0.48121,-3.14166 -0.48121,-10.04717 v -9.565964 l -1.90479,0.122223 -1.90479,0.122223 v 9.824698 c 0,10.97393 0.1985,11.92326 2.73276,13.06953 1.68728,0.76318 4.84492,0.49938 6.21954,-0.5196 z m 25.60976,-0.66269 c 1.1982,-1.30746 1.32815,-1.6872 1.32815,-3.88111 0,-3.10015 -0.61209,-4.28258 -4.08324,-7.88783 -2.65933,-2.76209 -2.7763,-2.96507 -2.65758,-4.61159 0.12095,-1.677391 0.16082,-1.722336 1.52772,-1.722336 1.2985,0 1.41853,0.105024 1.60403,1.403528 0.18964,1.327448 0.29288,1.410208 1.90479,1.526838 l 1.70428,0.12331 v -1.647005 c 0,-3.411839 -1.94902,-5.216247 -5.63429,-5.216247 -1.80284,0 -2.23361,0.168556 -3.39251,1.327449 -0.94667,0.946671 -1.40525,1.846317 -1.5987,3.136323 -0.45823,3.05569 0.29754,4.80281 3.60964,8.34445 1.6383,1.75184 3.09794,3.66016 3.24365,4.24072 0.37404,1.49028 -0.40766,3.00146 -1.55259,3.00146 -1.33054,0 -1.89334,-0.73905 -1.89334,-2.48625 v -1.52383 h -1.80453 -1.80454 l 8e-4,1.70428 c 0.001,3.78526 2.48569,6.10826 6.19013,5.78819 1.65288,-0.14281 2.19969,-0.41063 3.30831,-1.62035 z m -76.46739,-8.47868 v -9.82469 h 1.80454 1.80453 v -1.804536 -1.804536 h -5.61411 -5.61411 v 1.804536 1.804536 h 1.80454 1.80453 v 9.82469 9.8247 h 2.00504 2.00504 z m 6.61663,7.81966 0.27577,-2.00504 h 2.13028 2.13028 l 0.27577,2.00504 0.27576,2.00504 h 1.99927 c 1.9662,0 1.99569,-0.0183 1.78268,-1.10277 -0.11912,-0.60653 -0.97034,-5.83968 -1.89159,-11.62923 l -1.67501,-10.526462 h -2.75185 c -1.51352,0 -2.75186,0.07534 -2.75186,0.167417 0,0.09208 -0.81204,5.230115 -1.80454,11.417855 -0.99249,6.18775 -1.80453,11.34556 -1.80453,11.46182 0,0.11625 0.79511,0.21137 1.7669,0.21137 h 1.76691 z m 14.23579,-2.63196 v -4.637 l 1.29413,0.12566 c 1.80577,0.17534 2.30186,1.38699 2.30903,5.63952 l 0.006,3.50882 h 2.05181 c 1.93211,0 2.0377,-0.0526 1.81001,-0.90227 -0.13299,-0.49625 -0.24427,-2.45605 -0.24728,-4.35513 -0.005,-3.00531 -0.13385,-3.64203 -0.9959,-4.91234 -0.54475,-0.80272 -0.82006,-1.45949 -0.61181,-1.45949 1.45867,0 2.21794,-6.869356 1.01613,-9.193393 -0.84107,-1.626456 -3.18071,-2.435839 -7.04116,-2.435839 h -3.19995 v 11.629232 11.62923 h 1.80454 1.80454 z m 16.04031,-5.1877 v -9.82469 h 1.80454 1.80454 v -1.804536 -1.804536 h -5.61412 -5.61411 v 1.804536 1.804536 h 1.80454 1.80453 v 9.82469 9.8247 h 2.00504 2.00504 z m 22.05544,5.66997 v -4.15473 l 1.99356,-0.2361 c 2.71329,-0.32135 3.55839,-0.85625 4.44785,-2.81527 1.02191,-2.25072 1.03023,-6.68912 0.0167,-8.920629 -0.98526,-2.169313 -2.48527,-2.776499 -6.85914,-2.776499 h -3.40856 l -0.10641,11.528978 -0.1064,11.52898 h 2.01119 2.01119 z M 187.64749,82.74454 v -4.812095 h 2.40605 2.40605 v -1.804536 -1.804536 h -2.40605 -2.40605 V 71.11531 67.907246 h 3.00756 3.00756 v -1.804535 -1.804536 h -5.0126 -5.0126 v 11.36189 c 0,6.249043 0.1203,11.482197 0.26734,11.62923 0.14704,0.147038 1.0493,0.26734 2.00504,0.26734 h 1.7377 z m 16.40332,3.780021 c 1.86672,-1.57074 2.12467,-3.085166 1.97578,-11.599676 -0.12527,-7.163341 -0.18762,-7.69539 -1.04225,-8.893554 -2.26485,-3.175225 -8.0782,-2.632457 -9.55069,0.891705 -0.79645,1.906188 -0.80828,15.673227 -0.0151,17.571591 0.90306,2.161316 2.39867,3.062008 5.08451,3.062008 1.90862,0 2.53921,-0.183445 3.54775,-1.032074 z m 8.05817,-3.780021 c 0,-4.343963 0.0693,-4.812095 0.71278,-4.812095 0.39204,0 1.11386,0.280914 1.60404,0.624249 0.80697,0.565225 0.89124,0.960253 0.89124,4.177789 0,4.676546 0.0709,4.822064 2.3487,4.822545 l 1.86188,3.89e-4 -0.13903,-4.11072 c -0.14097,-4.168441 -0.75894,-6.548444 -1.80444,-6.949644 -0.45956,-0.176347 -0.39198,-0.419839 0.33391,-1.203088 1.41227,-1.523866 1.82668,-4.86417 0.98121,-7.908839 -0.67135,-2.417585 -2.1588,-3.083639 -6.89055,-3.085451 l -3.90982,-0.0015 v 11.62923 11.62923 h 2.00504 2.00504 z m 69.72984,-27.210502 c 1.92318,-1.251967 2.63875,-5.092229 1.47005,-7.889328 -0.31929,-0.764172 -1.85315,-2.73395 -3.40857,-4.377284 -2.64806,-2.797727 -2.82804,-3.10357 -2.82804,-4.8057 0,-1.632973 0.10829,-1.844997 1.06492,-2.085095 1.22643,-0.307815 2.14315,0.604639 2.14315,2.133176 0,0.829995 0.18687,0.925875 1.80453,0.925875 1.74195,0 1.80454,-0.04217 1.80454,-1.215903 0,-1.786489 -0.98256,-3.834253 -2.23281,-4.653451 -0.69893,-0.457959 -1.85273,-0.718633 -3.1808,-0.718633 -3.50907,0 -5.41361,2.035537 -5.41361,5.785972 0,2.47301 0.88874,4.120884 3.9891,7.396478 2.51673,2.658974 2.82804,3.161352 2.82804,4.563735 0,1.995479 -0.81403,2.782047 -2.21742,2.142619 -0.81447,-0.371096 -0.99065,-0.738161 -0.99065,-2.063997 v -1.612629 h -1.80453 -1.80454 v 1.82445 c 0,1.892019 0.69175,3.668142 1.78057,4.571784 1.52651,1.266894 5.10838,1.306793 6.99607,0.07793 z m -94.19133,-3.667109 v -4.411088 h 1.95096 c 3.57114,0 5.28436,-2.320979 5.24455,-7.105011 -0.0297,-3.573333 -0.65801,-5.282541 -2.36322,-6.429109 -1.23448,-0.830052 -1.77388,-0.91785 -5.0126,-0.815902 l -3.62926,0.11424 -0.10687,11.022028 c -0.0588,6.062114 -0.0193,11.250155 0.0877,11.528978 0.11719,0.305392 0.91701,0.506951 2.01166,0.506951 h 1.81712 z m 11.02772,2.406047 0.27577,-2.005039 h 2.1541 2.1541 l 0.26598,2.005039 0.26597,2.00504 h 1.95338 c 1.07436,0 1.95291,-0.13534 1.95234,-0.300756 -4.1e-4,-0.165416 -0.81261,-5.32936 -1.80454,-11.475431 -0.99192,-6.146071 -1.80349,-11.243885 -1.80349,-11.328474 0,-0.08459 -1.26318,-0.1538 -2.80706,-0.1538 -1.54388,0 -2.80705,0.09512 -2.80705,0.211372 0,0.116254 -0.81205,5.274071 -1.80454,11.461815 -0.99249,6.187744 -1.80454,11.32578 -1.80454,11.417858 0,0.09208 0.79511,0.167416 1.76691,0.167416 h 1.7669 z m 14.23578,-2.606551 v -4.611592 h 1.37986 c 0.75893,0 1.52468,0.225567 1.70168,0.50126 0.177,0.275693 0.41321,2.305796 0.52493,4.51134 l 0.20311,4.010079 1.96119,0.124527 1.9612,0.124528 -0.2525,-1.528055 c -0.13887,-0.840431 -0.25448,-2.916508 -0.25691,-4.613505 -0.004,-2.673594 -0.13266,-3.23454 -0.96514,-4.202363 l -0.96073,-1.116913 0.96073,-1.14176 c 0.82314,-0.978248 0.96072,-1.564328 0.96072,-4.092447 0,-5.480221 -1.21443,-6.608084 -7.11789,-6.61047 l -3.70932,-0.0015 v 11.629231 11.62923 h 1.80454 1.80453 z m 16.04032,-5.191132 V 36.67257 l 1.90479,-0.122224 1.90478,-0.122223 v -1.604032 -1.604032 l -5.71436,-0.111262 -5.71436,-0.111262 v 1.815546 1.815546 h 1.80453 1.80454 v 9.557356 c 0,5.256546 0.1203,9.677658 0.26734,9.824694 0.14703,0.147037 1.0493,0.267339 2.00504,0.267339 h 1.7377 z m 8.82217,2.414312 0.20051,-7.187906 0.72557,2.776819 c 0.39905,1.527251 1.27871,4.806922 1.9548,7.288159 l 1.22923,4.511339 h 1.95503 1.95502 V 44.648786 33.019555 h -1.79381 -1.79382 l -0.11097,5.881144 -0.11097,5.881143 -1.56747,-5.881143 -1.56746,-5.881144 h -2.34236 -2.34237 V 44.671843 56.32413 l 1.70429,-0.123309 1.70428,-0.123309 z m 20.45141,5.583875 v -1.804536 h -3.00756 -3.00756 v -3.208063 -3.208064 h 2.40605 2.40605 v -1.804535 -1.804536 h -2.40605 -2.40605 v -3.00756 -3.007559 h 3.00756 3.00756 v -1.804536 -1.804536 h -5.0126 -5.0126 v 11.629231 11.62923 h 5.0126 5.0126 z m 6.01512,-2.807055 v -4.611592 h 1.18891 c 1.62745,0 2.01915,0.922049 2.01915,4.752935 0,4.293465 0.0928,4.470163 2.3487,4.470648 l 1.86189,4e-4 -0.22212,-4.511739 c -0.16761,-3.404704 -0.40032,-4.782324 -0.94839,-5.614512 -0.39945,-0.606524 -0.87735,-1.102771 -1.06201,-1.102771 -0.18466,0 0.0912,-0.460621 0.6129,-1.023602 1.90336,-2.053757 1.79674,-7.314834 -0.19341,-9.543703 -1.11089,-1.244133 -1.18874,-1.264411 -5.37146,-1.399183 l -4.24424,-0.136754 v 11.665732 11.665732 h 2.00504 2.00504 z"
       id="path916"
       inkscape:connector-curvature="0"
       transform="matrix(0.75000002,0,0,-0.75000002,0,113.39001)" /><path
       style="fill:#ffffff;stroke-width:0.07088886"
       d="m 134.1124,114.73845 v -1.74701 h 0.45617 c 0.97043,0 1.05412,0.15197 1.02057,1.85322 -0.0231,1.17355 -0.0264,1.19491 -0.20694,1.37535 -0.15499,0.15487 -0.26765,0.18966 -0.72661,0.22437 l -0.54319,0.0411 z"
       id="path918"
       inkscape:connector-curvature="0"
       transform="matrix(0.75000002,0,0,-0.75000002,0,113.39001)" /><path
       style="fill:#ffffff;stroke-width:0.07088886"
       d="m 139.14551,118.42376 c 0,-0.0201 0.76663,-1.84809 1.49041,-3.55376 0.0352,-0.0829 0.062,0.6312 0.0647,1.71905 l 0.004,1.86084 h -0.77978 c -0.42888,0 -0.77978,-0.0118 -0.77978,-0.0261 z"
       id="path920"
       inkscape:connector-curvature="0"
       transform="matrix(0.75000002,0,0,-0.75000002,0,113.39001)" /><path
       style="fill:#ffffff;stroke-width:0.10025199"
       d="m 159.50986,120.35299 c -0.12046,-0.0497 -0.26708,-0.18021 -0.32582,-0.28997 -0.0693,-0.12941 -0.10681,-1.33947 -0.10681,-3.44205 0,-3.71602 -0.006,-3.68809 0.74204,-3.68809 0.30974,0 0.4833,0.059 0.62089,0.21103 0.17965,0.19851 0.19098,0.40649 0.19098,3.50603 0,3.16252 -0.008,3.30293 -0.2005,3.49198 -0.24737,0.243 -0.63059,0.33085 -0.92078,0.21107 z"
       id="path938"
       inkscape:connector-curvature="0"
       transform="matrix(0.75000002,0,0,-0.75000002,0,113.39001)" /><path
       style="fill:#ffffff;stroke-width:0.07088886"
       d="m 264.00736,39.904473 v -3.517322 l 1.15194,0.03023 c 0.99481,0.02611 1.19063,0.05048 1.4355,0.178646 0.3686,0.192928 0.55842,0.402253 0.75859,0.836539 0.15836,0.343575 0.16297,0.41267 0.16297,2.446273 v 2.092712 l -0.22706,0.461213 c -0.40322,0.819061 -0.79211,0.989027 -2.26297,0.989027 h -1.01897 z"
       id="path940"
       inkscape:connector-curvature="0"
       transform="matrix(0.75000002,0,0,-0.75000002,0,113.39001)" /><path
       style="fill:#ffffff;stroke-width:0.07088886"
       d="m 212.96738,39.910555 v -3.523697 l 1.1165,0.03039 c 1.31473,0.03579 1.64169,0.137558 1.99095,0.6197 0.35281,0.487032 0.40155,0.836132 0.40155,2.875845 0,2.060737 -0.0536,2.394049 -0.4652,2.890778 -0.41395,0.499608 -0.66161,0.577447 -1.9273,0.605729 l -1.1165,0.02495 z"
       id="path942"
       inkscape:connector-curvature="0"
       transform="matrix(0.75000002,0,0,-0.75000002,0,113.39001)" /><path
       style="fill:#ffffff;stroke-width:0.07088886"
       d="m 211.90405,71.183555 v -3.517771 h 1.15464 c 1.05765,0 1.18087,0.0134 1.46684,0.1595 0.42145,0.215321 0.68222,0.566328 0.81904,1.102457 0.0942,0.369276 0.11005,0.781041 0.0912,2.374777 -0.0219,1.856365 -0.0291,1.941992 -0.19232,2.303292 -0.19166,0.424218 -0.58443,0.797032 -0.9806,0.930765 -0.14718,0.04968 -0.73813,0.107078 -1.31321,0.127543 l -1.04561,0.03721 z"
       id="path944"
       inkscape:connector-curvature="0"
       transform="matrix(0.75000002,0,0,-0.75000002,0,113.39001)" /><path
       style="fill:#ffffff;stroke-width:0.07088886"
       d="m 199.97469,84.250868 c -0.63462,-0.157914 -1.03851,-0.544962 -1.23636,-1.184795 -0.11698,-0.378313 -0.12594,-0.894063 -0.12594,-7.24807 0,-6.453535 0.007,-6.862846 0.13041,-7.230664 0.16817,-0.502769 0.40672,-0.812743 0.77753,-1.010312 0.42674,-0.227373 1.44119,-0.228708 1.86553,-0.0025 0.38255,0.203972 0.62166,0.496616 0.78226,0.9574 0.12327,0.353661 0.13049,0.756635 0.13049,7.28603 0,5.253105 -0.0208,6.979969 -0.0869,7.196309 -0.15229,0.499054 -0.46792,0.917841 -0.81453,1.080768 -0.3747,0.17613 -1.04552,0.249595 -1.42252,0.155788 z"
       id="path946"
       inkscape:connector-curvature="0"
       transform="matrix(0.75000002,0,0,-0.75000002,0,113.39001)" /><path
       style="fill:#ffffff;stroke-width:0.07088886"
       d="m 199.42549,48.756181 c -0.008,-0.201093 1.67484,-11.202313 1.7075,-11.162328 0.0227,0.02777 0.40105,2.474898 0.84081,5.438053 0.43975,2.963154 0.81635,5.475278 0.83687,5.582497 l 0.0373,0.194945 h -1.7102 c -0.9406,0 -1.71115,-0.02392 -1.71231,-0.05317 z"
       id="path948"
       inkscape:connector-curvature="0"
       transform="matrix(0.75000002,0,0,-0.75000002,0,113.39001)" /><path
       style="fill:#ffffff;stroke-width:0.07088886"
       d="m 187.58917,40.301643 v -3.914785 l 1.1165,0.03257 c 1.57968,0.04609 1.92249,0.218603 2.19694,1.105579 0.10847,0.350532 0.12467,0.711549 0.12467,2.777674 0,2.066124 -0.0162,2.427141 -0.12467,2.777673 -0.27533,0.889833 -0.62114,1.06395 -2.19694,1.106161 l -1.1165,0.02991 z"
       id="path950"
       inkscape:connector-curvature="0"
       transform="matrix(0.75000002,0,0,-0.75000002,0,113.39001)" /><path
       style="fill:#ffffff;stroke-width:0.07088886"
       d="m 261.76713,102.20847 v -3.863445 l 1.04561,0.0031 c 1.29522,0.0038 1.63902,0.09857 1.97732,0.544804 0.35828,0.472575 0.39071,0.786255 0.36622,3.541981 -0.0207,2.33091 -0.0302,2.4851 -0.17064,2.78868 -0.17719,0.38288 -0.50165,0.67377 -0.86366,0.77431 -0.145,0.0403 -0.73416,0.0734 -1.30924,0.0736 l -1.04561,3.9e-4 z"
       id="path952"
       inkscape:connector-curvature="0"
       transform="matrix(0.75000002,0,0,-0.75000002,0,113.39001)" /><path
       style="fill:#ffffff;stroke-width:0.07088886"
       d="m 223.69981,101.8616 v -3.516575 h 1.05047 c 1.30362,0 1.6696,0.09065 2.02037,0.500452 0.41607,0.486081 0.4736,0.844773 0.4736,2.952563 0,2.16412 -0.0697,2.54804 -0.5471,3.01324 -0.44548,0.43409 -0.69581,0.50431 -1.91629,0.53749 l -1.08105,0.0294 z"
       id="path954"
       inkscape:connector-curvature="0"
       transform="matrix(0.75000002,0,0,-0.75000002,0,113.39001)" /><path
       style="fill:#ffffff;stroke-width:0.07088886"
       d="m 210.37599,109.45685 c 0.1066,-0.71154 0.49155,-3.28202 0.85545,-5.71217 0.36389,-2.43016 0.67016,-4.392005 0.68059,-4.35967 0.0104,0.03234 0.38636,2.51509 0.83539,5.51723 0.44903,3.00215 0.83465,5.54617 0.85693,5.65339 l 0.0405,0.19495 h -1.73135 -1.73134 z"
       id="path956"
       inkscape:connector-curvature="0"
       transform="matrix(0.75000002,0,0,-0.75000002,0,113.39001)" /></g></svg>