<svg width="143" height="79" viewBox="0 0 143 79" version="1.1" xmlns="http://www.w3.org/2000/svg" xmlns:xlink="http://www.w3.org/1999/xlink"><defs><path id="path-1" d="M0 .017h93.867V59.75H0z"/><path id="path-3" d="M.192.017h8.685V59.75H.192z"/><path id="path-5" d="M0 .065h96.95v58.886H0z"/><path id="path-7" d="M.124.017h8.685V59.75H.124z"/></defs><g id="HomePage" stroke="none" stroke-width="1" fill="none" fill-rule="evenodd"><g id="01-Home" transform="translate(-248 -2756)"><g id="Metodos" transform="translate(248 2639)"><g id="credito" transform="translate(0 117)"><g id="Group-11"><g id="debito" transform="translate(48.5)"><g id="Group-3"><mask id="mask-2" fill="#fff"><use xlink:href="#path-1"/></mask><path d="M89.6.017a4.267 4.267 0 0 1 4.267 4.266v51.2A4.267 4.267 0 0 1 89.6 59.75H4.267A4.267 4.267 0 0 1 0 55.483v-51.2A4.267 4.267 0 0 1 4.267.017H89.6z" id="Fill-1" fill="#0658B0" mask="url(#mask-2)"/></g><g id="Group-6" transform="translate(85)"><mask id="mask-4" fill="#fff"><use xlink:href="#path-3"/></mask><path d="M4.939.017H.192c2.175 0 3.938 1.91 3.938 4.266v51.2c0 2.357-1.763 4.267-3.938 4.267h4.747c2.175 0 3.938-1.91 3.938-4.267v-51.2c0-2.356-1.763-4.266-3.938-4.266" id="Fill-4" fill="#0E2D4F" mask="url(#mask-4)"/></g><path d="M25.47 26H9.53C8.684 26 8 25.31 8 24.46V10.54C8 9.69 8.685 9 9.53 9h15.94c.845 0 1.53.69 1.53 1.54v13.92c0 .85-.685 1.54-1.53 1.54" id="Fill-7" fill="#F3BE3B"/><path d="M70 36.879A8.581 8.581 0 0 1 76.43 34c4.732 0 8.57 3.806 8.57 8.5S81.162 51 76.43 51A8.581 8.581 0 0 1 70 48.121V36.88z" id="Fill-9" fill="#FDDE00"/><path d="M64.5 34a8.5 8.5 0 1 1 0 17 8.5 8.5 0 0 1 0-17" id="Fill-11" fill="#89A79D"/><path d="M11.575 38h-3.15C7.638 38 7 38.672 7 39.5S7.638 41 8.425 41h3.15c.787 0 1.425-.672 1.425-1.5s-.638-1.5-1.425-1.5" id="Fill-13" fill="#346171"/><path d="M18.574 38h-3.148c-.788 0-1.426.672-1.426 1.5s.638 1.5 1.426 1.5h3.148c.788 0 1.426-.672 1.426-1.5s-.638-1.5-1.426-1.5" id="Fill-15" fill="#346171"/><path d="M26.575 38h-3.15c-.787 0-1.425.672-1.425 1.5s.638 1.5 1.425 1.5h3.15c.787 0 1.425-.672 1.425-1.5s-.638-1.5-1.425-1.5" id="Fill-17" fill="#346171"/><path d="M34.574 38h-3.148c-.788 0-1.426.672-1.426 1.5s.638 1.5 1.426 1.5h3.148c.788 0 1.426-.672 1.426-1.5s-.638-1.5-1.426-1.5" id="Fill-19" fill="#346171"/><path d="M24.608 45H8.392C7.623 45 7 45.672 7 46.5S7.623 48 8.392 48h16.216c.769 0 1.392-.672 1.392-1.5s-.623-1.5-1.392-1.5" id="Fill-21" fill="#003961"/><path d="M43.65 45h-14.3c-.746 0-1.35.672-1.35 1.5s.604 1.5 1.35 1.5h14.3c.746 0 1.35-.672 1.35-1.5s-.604-1.5-1.35-1.5" id="Fill-23" fill="#003961"/><path d="M17.609 49H8.391C7.623 49 7 49.672 7 50.5S7.623 52 8.391 52h9.218c.768 0 1.391-.672 1.391-1.5s-.623-1.5-1.391-1.5" id="Fill-25" fill="#346171"/><path d="M27 16h-6.145A1.85 1.85 0 0 0 19 17.846V26h3.71v-6.309H27V16z" id="Fill-27" fill="#C69900"/><path d="M14.145 16H8v3.692h4.29V26H16v-8.154A1.85 1.85 0 0 0 14.145 16" id="Fill-29" fill="#C69900"/><path d="M35.792 14.133a.471.471 0 0 0-.656 0 .452.452 0 0 0 0 .644 3.109 3.109 0 0 1 0 4.448.45.45 0 0 0 0 .642c.18.177.474.177.656 0a4.007 4.007 0 0 0 0-5.734" id="Fill-31" fill="#FFF"/><path d="M34.07 16.113a.926.926 0 0 0-.886 0c-.244.15-.244.394 0 .546.754.463.754 1.22 0 1.684-.122.075-.184.174-.184.272 0 .099.062.197.184.272.243.15.64.15.883 0 1.244-.764 1.244-2.009.002-2.774" id="Fill-33" fill="#FFF"/><path d="M36.628 20.875c1.83-2.137 1.83-5.613 0-7.75a.332.332 0 0 0-.52 0 .483.483 0 0 0 0 .607c1.545 1.801 1.545 4.734 0 6.538a.466.466 0 0 0-.108.302c0 .11.036.22.108.303a.332.332 0 0 0 .52 0" id="Fill-35" fill="#FFF"/></g><g id="tarjeta-credito" transform="translate(0 19)"><path d="M96.844 55.274c0 2.018-1.718 3.726-3.749 3.726H3.749C1.719 59 0 57.292 0 55.274V3.727C0 1.707 1.718 0 3.749 0H93.25C95.281 0 97 1.708 97 3.727v51.547h-.156z" id="Fill-1" fill="#F5260A"/><g id="Group-5"><mask id="mask-6" fill="#fff"><use xlink:href="#path-5"/></mask><path d="M0 3.775C0 1.765 1.717.065 3.747.065h89.456c2.03 0 3.747 1.7 3.747 3.71v51.467c0 2.01-1.718 3.71-3.747 3.71" id="Fill-3" fill="#BB0B04" mask="url(#mask-6)"/></g><path d="M37.792 17.133a.471.471 0 0 0-.656 0 .452.452 0 0 0 0 .644 3.11 3.11 0 0 1 0 4.448.45.45 0 0 0 0 .642.47.47 0 0 0 .656 0 4.007 4.007 0 0 0 0-5.734" id="Fill-6" fill="#FFF"/><path d="M36.07 19.113a.926.926 0 0 0-.886 0c-.244.15-.244.394 0 .546.754.463.754 1.22 0 1.684-.122.075-.184.174-.184.272 0 .099.062.197.184.272.243.15.64.15.883 0 1.244-.764 1.244-2.009.002-2.774" id="Fill-8" fill="#FFF"/><path d="M37.942 23.875c2.744-2.137 2.744-5.613 0-7.75a.67.67 0 0 0-.78 0c-.215.167-.215.438 0 .607 2.318 1.802 2.318 4.735 0 6.538a.386.386 0 0 0-.162.303c0 .109.055.218.162.302a.67.67 0 0 0 .78 0" id="Fill-10" fill="#FFF"/><path d="M25.47 29H9.53C8.684 29 8 28.31 8 27.46V13.54c0-.85.685-1.54 1.53-1.54h15.94c.845 0 1.53.69 1.53 1.54v13.92c0 .85-.685 1.54-1.53 1.54" id="Fill-12" fill="#FFD243"/><path d="M27 19h-6.145A1.85 1.85 0 0 0 19 20.846V29h3.71v-6.308H27V19z" id="Fill-14" fill="#FF9C42"/><path d="M15.145 19H9v3.692h4.29V29H17v-8.154A1.85 1.85 0 0 0 15.145 19" id="Fill-16" fill="#FF9C42"/><path d="M32.577 45H9.423C8.637 45 8 45.672 8 46.5S8.637 48 9.423 48h23.154c.786 0 1.423-.672 1.423-1.5s-.637-1.5-1.423-1.5" id="Fill-18" fill="#003961"/><path d="M60.589 45H37.41c-.779 0-1.411.672-1.411 1.5s.632 1.5 1.411 1.5h23.18c.779 0 1.411-.672 1.411-1.5S61.369 45 60.59 45" id="Fill-20" fill="#003961"/><path d="M28.635 49H9.365C8.61 49 8 49.672 8 50.5S8.611 52 9.365 52h19.27C29.39 52 30 51.328 30 50.5s-.611-1.5-1.365-1.5" id="Fill-22" fill="#003961"/><path d="M41.073 49h-6.146c-.512 0-.927.672-.927 1.5s.415 1.5.927 1.5h6.146c.512 0 .927-.672.927-1.5s-.415-1.5-.927-1.5" id="Fill-24" fill="#003961"/><path d="M89.725 9h-8.45C80.571 9 80 9.672 80 10.5s.57 1.5 1.275 1.5h8.45c.704 0 1.275-.672 1.275-1.5S90.43 9 89.725 9" id="Fill-26" fill="#A1E4EF"/><path d="M89.77 14H75.23c-.68 0-1.23.672-1.23 1.5s.55 1.5 1.23 1.5h14.54c.68 0 1.23-.672 1.23-1.5s-.55-1.5-1.23-1.5" id="Fill-28" fill="#A1E4EF"/><g id="Group-32" transform="translate(88)"><mask id="mask-8" fill="#fff"><use xlink:href="#path-7"/></mask><path d="M4.87.017H.125c2.175 0 3.938 1.91 3.938 4.266v51.2c0 2.357-1.763 4.267-3.938 4.267H4.87c2.175 0 3.938-1.91 3.938-4.267v-51.2C8.809 1.927 7.046.017 4.87.017" id="Fill-30" fill="#940D0E" mask="url(#mask-8)"/></g><path d="M90.42 55H71.58C70.155 55 69 53.869 69 52.474v-7.948C69 43.13 70.155 42 71.58 42h18.84c1.425 0 2.58 1.131 2.58 2.526v7.948C93 53.87 91.845 55 90.42 55" id="Fill-33" fill="#FFD243"/></g></g></g></g></g></g></svg>