<svg xmlns="http://www.w3.org/2000/svg" xmlns:xlink="http://www.w3.org/1999/xlink" viewBox="0 0 943.25 337.6"><defs><style>.cls-1{fill:none;}.cls-2{clip-path:url(#clip-path);}.cls-3{fill:#ff5b60;}.cls-4{fill:#00cba5;}.cls-5{fill:#ffd34a;}.cls-6{fill:#fff;}</style><clipPath id="clip-path" transform="translate(30.42 30.08)"><circle class="cls-1" cx="138.38" cy="138.72" r="138.38"/></clipPath></defs><g id="Capa_2" data-name="Capa 2"><g id="Capa_1-2" data-name="Capa 1"><g class="cls-2"><circle class="cls-3" cx="84.4" cy="84.4" r="84.4"/><circle class="cls-4" cx="253.2" cy="84.4" r="84.4"/><circle class="cls-5" cx="84.4" cy="253.2" r="84.4"/><circle class="cls-6" cx="253.2" cy="253.2" r="84.4"/></g><path class="cls-4" d="M443.21,50.51q9.39,10,9.39,27.94v50.27a8.87,8.87,0,0,1-2.45,6.41,9,9,0,0,1-15.46-6.41V78.45c0-7.14-1.78-12.57-5.35-16.25S421,56.66,415,56.66A19.64,19.64,0,0,0,400,63q-5.88,6.33-5.88,16.16v49.57a8.82,8.82,0,0,1-2.46,6.41,9,9,0,0,1-15.47-6.41V78.45c0-7.14-1.78-12.57-5.35-16.25s-8.35-5.54-14.32-5.54A19.79,19.79,0,0,0,341.41,63q-5.9,6.33-5.89,16.16v49.57a8.87,8.87,0,0,1-2.45,6.41,9,9,0,0,1-15.5-6.41V50.51A8.67,8.67,0,0,1,320.12,44a8.92,8.92,0,0,1,6.41-2.46,8.71,8.71,0,0,1,6.32,2.38,8.88,8.88,0,0,1,2.63,6.24A32.39,32.39,0,0,1,346.41,43a36.48,36.48,0,0,1,13.7-2.55,35,35,0,0,1,16.06,3.6,31,31,0,0,1,11.68,10.28A36.69,36.69,0,0,1,401,44.18a41.06,41.06,0,0,1,17.56-3.69Q433.81,40.49,443.21,50.51Z" transform="translate(30.42 30.08)"/><path class="cls-4" d="M545.93,47.08a47.26,47.26,0,0,1,17.38,17.57,49,49,0,0,1,6.41,24.87v39.2a9,9,0,1,1-17.91,0v-6.51a43.78,43.78,0,0,1-73-7.82A52.46,52.46,0,0,1,473,89.52a49.65,49.65,0,0,1,6.32-24.87,46.35,46.35,0,0,1,17.47-17.57,48.64,48.64,0,0,1,24.65-6.42A47.72,47.72,0,0,1,545.93,47.08Zm-8.6,71a30.57,30.57,0,0,0,11.15-11.78,34.66,34.66,0,0,0,4-16.79,35.25,35.25,0,0,0-4-16.87,30.94,30.94,0,0,0-42-12.41c-.33.18-.66.36-1,.55A31,31,0,0,0,494.3,72.64a34.72,34.72,0,0,0-4.12,16.87,34.14,34.14,0,0,0,4.12,16.79,31,31,0,0,0,11.24,11.78A31.5,31.5,0,0,0,537.33,118.08Z" transform="translate(30.42 30.08)"/><path class="cls-4" d="M653.65,43.12q5.28,2.82,5.27,7a6.42,6.42,0,0,1-.17,1.75q-1.59,5.64-7,5.63a14.46,14.46,0,0,1-2.63-.35,70.49,70.49,0,0,0-11.41-1.24q-12.66,0-20.37,5.81a18.55,18.55,0,0,0-7.73,15.64v51.36a9,9,0,0,1-2.19,6.5c-1.47,1.52-3.66,2.29-6.59,2.29a8.94,8.94,0,0,1-6.5-2.2c-1.52-1.46-2.28-3.65-2.28-6.59V50.16a8,8,0,0,1,7.12-8.79,9.2,9.2,0,0,1,1.66,0q8.77,0,8.78,8.79v3.33a37.06,37.06,0,0,1,13-9.66,39.44,39.44,0,0,1,16.5-3.52Q648.41,40.31,653.65,43.12Z" transform="translate(30.42 30.08)"/><path class="cls-4" d="M747.41,130.13a8.13,8.13,0,0,1-3.16,6.5,8.85,8.85,0,0,1-5.62,2.11,7.63,7.63,0,0,1-6.32-3.17L699,94.27,690.17,102v26.9a8.61,8.61,0,1,1-17.21.59,5.81,5.81,0,0,1,0-.59V8.9a8.61,8.61,0,0,1,17.21-.58,5.61,5.61,0,0,1,0,.58V80.44l42.66-38.15A7.51,7.51,0,0,1,738.28,40a7.34,7.34,0,0,1,6,2.81,7.47,7.47,0,0,1,2.28,5.45,7.33,7.33,0,0,1-2.81,6L711.41,83l34.07,41.83A7.56,7.56,0,0,1,747.41,130.13Z" transform="translate(30.42 30.08)"/><path class="cls-4" d="M843.64,93.48a8,8,0,0,1-5.79,2.2H771.13a30.93,30.93,0,0,0,11.15,19.86q9.21,7.56,22.56,7.55a33.82,33.82,0,0,0,11-1.93,32.61,32.61,0,0,0,9.4-4.74,9.12,9.12,0,0,1,5.79-1.94,8.28,8.28,0,0,1,8.43,7.76,6.38,6.38,0,0,1-2.81,5.28,48.44,48.44,0,0,1-14.84,7.73A53.54,53.54,0,0,1,779.06,132a45.24,45.24,0,0,1-17.83-17.31,49.25,49.25,0,0,1-6.41-25.14,52,52,0,0,1,6.06-25.22,43.82,43.82,0,0,1,16.86-17.4,48.26,48.26,0,0,1,24.49-6.24q13.53,0,23.36,6a39.43,39.43,0,0,1,15.1,16.7A55.19,55.19,0,0,1,846,88,7.38,7.38,0,0,1,843.64,93.48ZM781.41,62.81q-8,7-10.1,18.81h58.47Q828.21,69.86,821,62.81t-18.79-7Q789.42,55.78,781.41,62.81Z" transform="translate(30.42 30.08)"/><path class="cls-4" d="M910.63,122.39a9.16,9.16,0,0,1,2.19,6.33,7.92,7.92,0,0,1-2.89,6.33,11.12,11.12,0,0,1-7.47,2.46h-3.15A28.88,28.88,0,0,1,883.59,133a31.08,31.08,0,0,1-11.18-12.21,37,37,0,0,1-4-17.4V60h-8.08a8.42,8.42,0,0,1-6-2.11,6.91,6.91,0,0,1-2.28-5.28A7.32,7.32,0,0,1,854.33,47a8.51,8.51,0,0,1,6-2.11h8.08V19.57a8.78,8.78,0,1,1,17.56,0V44.88h14.92a8.51,8.51,0,0,1,6,2.11,7.32,7.32,0,0,1,2.28,5.62,6.91,6.91,0,0,1-2.28,5.28,8.46,8.46,0,0,1-6,2.11H886v43.41a18.11,18.11,0,0,0,3.86,11.78,11.83,11.83,0,0,0,9.49,4.74h6A7,7,0,0,1,910.63,122.39Z" transform="translate(30.42 30.08)"/><path class="cls-6" d="M332.24,274.11a32.66,32.66,0,0,1-13.68-9.39A4,4,0,0,1,317.5,262a4.08,4.08,0,0,1,2-3.47,4,4,0,0,1,2.55-.75,4.31,4.31,0,0,1,3.46,1.65q7.51,9.19,24.21,9.2,11.88,0,17.52-4.22a13,13,0,0,0,5.64-10.85q0-11.91-23-15.23-14.58-2.1-22-8t-7.47-14.18q0-11,8-17.11t21-6.1q18.94,0,28.72,13.56a3.87,3.87,0,0,1,.9,2.56c0,1.41-.8,2.56-2.4,3.47a6.82,6.82,0,0,1-2.26.6,4.54,4.54,0,0,1-3.76-2q-7.67-9.78-21.5-9.79-9.18,0-14.59,4t-5.41,9.87a11.2,11.2,0,0,0,5.19,9.65q5.19,3.62,17.37,5.43,15.93,2.25,22.93,8.51a19.62,19.62,0,0,1,7,15.15,18.43,18.43,0,0,1-4.44,12.21,28.53,28.53,0,0,1-11.8,8.13,43.78,43.78,0,0,1-16.09,2.87A48.11,48.11,0,0,1,332.24,274.11Z" transform="translate(30.42 30.08)"/><path class="cls-6" d="M464.56,198.45a40,40,0,0,1,15.11,15.14,42.83,42.83,0,0,1,5.49,21.56v36.62a4.51,4.51,0,1,1-9,0V260a35,35,0,0,1-13.61,12.58,40.36,40.36,0,0,1-19.32,4.6,42.37,42.37,0,0,1-21.5-5.5,39.72,39.72,0,0,1-15.12-15.15,44.84,44.84,0,0,1,0-43,40,40,0,0,1,15.12-15.14,44.5,44.5,0,0,1,42.85,0Zm-4.51,65.94a31.29,31.29,0,0,0,11.8-12.06,36.55,36.55,0,0,0,0-34.36,31.92,31.92,0,0,0-11.8-12.14,33,33,0,0,0-45.22,11.55l-.34.59a36,36,0,0,0,0,34.36,31.81,31.81,0,0,0,11.92,12.06,34.61,34.61,0,0,0,33.68,0Z" transform="translate(30.42 30.08)"/><path class="cls-6" d="M574.93,198.45A40,40,0,0,1,590,213.59a44.79,44.79,0,0,1,0,43,39.85,39.85,0,0,1-15.11,15.13,44.58,44.58,0,0,1-42.63.15A39.68,39.68,0,0,1,517.19,257a41.92,41.92,0,0,1-5.72-21.1v-72.8a4.36,4.36,0,0,1,1.28-3.31A4.54,4.54,0,0,1,516,158.6a4.18,4.18,0,0,1,4.51,3.8,4.33,4.33,0,0,1,0,.72v47a35.14,35.14,0,0,1,13.61-12.59A40.65,40.65,0,0,1,553.41,193,42.67,42.67,0,0,1,574.93,198.45Zm-4.67,65.86a32.32,32.32,0,0,0,11.88-12.13,36,36,0,0,0,0-34.37,31.9,31.9,0,0,0-11.88-12,34.67,34.67,0,0,0-33.68,0,31.41,31.41,0,0,0-11.8,12,36.57,36.57,0,0,0,0,34.37,31.75,31.75,0,0,0,11.8,12.13A34.06,34.06,0,0,0,570.26,264.31Z" transform="translate(30.42 30.08)"/><path class="cls-6" d="M680.78,198.45a40,40,0,0,1,15.11,15.14,42.86,42.86,0,0,1,5.52,21.56v36.62a4.55,4.55,0,0,1-1.2,3.24,4.27,4.27,0,0,1-3.31,1.28,4.37,4.37,0,0,1-4.51-4.24V260a34.83,34.83,0,0,1-13.61,12.58,40.36,40.36,0,0,1-19.32,4.6,42.37,42.37,0,0,1-21.5-5.5,39.69,39.69,0,0,1-15.11-15.15,44.79,44.79,0,0,1,0-43A39.87,39.87,0,0,1,638,198.41a44.5,44.5,0,0,1,42.85,0Zm-4.51,65.94a31.45,31.45,0,0,0,11.81-12.06,36.6,36.6,0,0,0,0-34.36,32,32,0,0,0-11.81-12.14,33,33,0,0,0-45.22,11.55l-.34.59a36,36,0,0,0,0,34.36,32,32,0,0,0,11.88,12.06,34.61,34.61,0,0,0,33.68,0Z" transform="translate(30.42 30.08)"/><path class="cls-6" d="M784.91,197.32a32.62,32.62,0,0,1,13.5,13.19q4.89,8.66,4.89,20.72v40.54a4.38,4.38,0,0,1-4.24,4.52h-.28a4.38,4.38,0,0,1-4.51-4.52V231.23q0-14.32-8-21.85t-21-7.54a33.59,33.59,0,0,0-14.5,3.09,25.25,25.25,0,0,0-10.31,8.59,21.05,21.05,0,0,0-3.75,12.13v46.12A4.56,4.56,0,0,1,735.5,275a4.27,4.27,0,0,1-3.31,1.28,4.38,4.38,0,0,1-4.51-4.52v-73.4a4.36,4.36,0,0,1,1.28-3.31,4.54,4.54,0,0,1,3.23-1.21,4.46,4.46,0,0,1,3.31,1.21,4.51,4.51,0,0,1,1.21,3.31v7.84a35.71,35.71,0,0,1,12.47-9.87,36.85,36.85,0,0,1,16.09-3.55A41.73,41.73,0,0,1,784.91,197.32Z" transform="translate(30.42 30.08)"/><path class="cls-6" d="M891.59,198.45a39.87,39.87,0,0,1,15.11,15.14,42.83,42.83,0,0,1,5.49,21.56v36.62A4.55,4.55,0,0,1,911,275a4.27,4.27,0,0,1-3.31,1.28,4.37,4.37,0,0,1-4.51-4.24V260a34.83,34.83,0,0,1-13.61,12.58,40.36,40.36,0,0,1-19.32,4.6,42.37,42.37,0,0,1-21.5-5.5,39.69,39.69,0,0,1-15.11-15.15,44.79,44.79,0,0,1,0-43,39.87,39.87,0,0,1,15.11-15.14,44.5,44.5,0,0,1,42.85,0Zm-4.51,65.94a31.45,31.45,0,0,0,11.81-12.06,36.6,36.6,0,0,0,0-34.36,32,32,0,0,0-11.81-12.14,33,33,0,0,0-45.22,11.55l-.34.59a36,36,0,0,0,0,34.36,32,32,0,0,0,11.89,12.06,34.61,34.61,0,0,0,33.68,0Z" transform="translate(30.42 30.08)"/></g></g></svg>