<svg xmlns="http://www.w3.org/2000/svg" xmlns:xlink="http://www.w3.org/1999/xlink" viewBox="0 0 476.84 642.97"><defs><style>.cls-1{fill:none;}.cls-2{clip-path:url(#clip-path);}.cls-3{fill:#ff5b60;}.cls-4{fill:#00cba5;}.cls-5{fill:#ffd34a;}.cls-6{fill:#fff;}</style><clipPath id="clip-path" transform="translate(42.94 42.96)"><circle class="cls-1" cx="195.48" cy="195.46" r="195.46"/></clipPath></defs><g id="Capa_2" data-name="Capa 2"><g id="Capa_1-2" data-name="Capa 1"><g class="cls-2"><circle class="cls-3" cx="119.21" cy="119.21" r="119.21"/><circle class="cls-4" cx="357.63" cy="119.21" r="119.21"/><circle class="cls-5" cx="119.21" cy="357.63" r="119.21"/><circle class="cls-6" cx="357.63" cy="357.63" r="119.21"/></g><path class="cls-4" d="M82.54,451.18q6.17,6.58,6.17,18.35v33a5.83,5.83,0,0,1-1.61,4.21A5.91,5.91,0,0,1,77,502.53v-33c0-4.7-1.17-8.25-3.51-10.68a12.5,12.5,0,0,0-9.4-3.63,12.85,12.85,0,0,0-9.85,4.15A15,15,0,0,0,50.32,470v32.54a5.83,5.83,0,0,1-1.61,4.21,5.91,5.91,0,0,1-10.14-4.21v-33c0-4.7-1.18-8.25-3.52-10.68a12.47,12.47,0,0,0-9.39-3.63,13,13,0,0,0-10,4.15A15,15,0,0,0,11.82,470v32.54a5.83,5.83,0,0,1-1.61,4.21A5.91,5.91,0,0,1,.07,502.54V451.18a5.63,5.63,0,0,1,1.67-4.27,5.8,5.8,0,0,1,4.2-1.61,5.61,5.61,0,0,1,5.87,5.33c0,.11,0,.21,0,.32A21,21,0,0,1,19,446.28a23.68,23.68,0,0,1,9-1.67A22.93,22.93,0,0,1,38.48,447a20.19,20.19,0,0,1,7.66,6.75,23.9,23.9,0,0,1,8.65-6.69,26.8,26.8,0,0,1,11.53-2.42Q76.37,444.61,82.54,451.18Z" transform="translate(42.94 42.96)"/><path class="cls-4" d="M150,448.93a31,31,0,0,1,11.41,11.54,32.21,32.21,0,0,1,4.21,16.33v25.73a5.88,5.88,0,1,1-11.76,0v-4.27a28.94,28.94,0,0,1-37.25,6.34A29.09,29.09,0,0,1,106,493.12a34.57,34.57,0,0,1-3.86-16.32,32.51,32.51,0,0,1,4.15-16.33,30.34,30.34,0,0,1,11.47-11.54,31.94,31.94,0,0,1,16.2-4.21A31.24,31.24,0,0,1,150,448.93Zm-5.65,46.62a20.09,20.09,0,0,0,7.32-7.74,22.91,22.91,0,0,0,2.65-11,23.22,23.22,0,0,0-2.65-11.08,20.31,20.31,0,0,0-27.54-8.16l-.63.36a20.28,20.28,0,0,0-7.37,7.79,22.77,22.77,0,0,0-2.71,11.08,22.33,22.33,0,0,0,2.71,11,20.37,20.37,0,0,0,7.37,7.74,20.72,20.72,0,0,0,20.87,0Z" transform="translate(42.94 42.96)"/><path class="cls-4" d="M220.69,446.33c2.31,1.24,3.46,2.77,3.46,4.62a4.52,4.52,0,0,1-.11,1.16c-.67,2.46-2.2,3.69-4.61,3.69a10.13,10.13,0,0,1-1.73-.23,44.93,44.93,0,0,0-7.5-.81q-8.3,0-13.37,3.81a12.16,12.16,0,0,0-5.07,10.26v33.7a5.92,5.92,0,0,1-1.44,4.26,5.72,5.72,0,0,1-4.32,1.5,5.86,5.86,0,0,1-4.27-1.44,5.72,5.72,0,0,1-1.5-4.32V451a5.23,5.23,0,0,1,4.63-5.77,5.43,5.43,0,0,1,1.14,0q5.76,0,5.76,5.77v2.19a24.46,24.46,0,0,1,8.53-6.34,25.79,25.79,0,0,1,10.84-2.31C215.2,444.49,218.39,445.11,220.69,446.33Z" transform="translate(42.94 42.96)"/><path class="cls-4" d="M282.25,503.45a5.36,5.36,0,0,1-2.08,4.27,5.81,5.81,0,0,1-3.69,1.38,5,5,0,0,1-4.15-2.07l-21.85-27.12L244.67,485v17.65a5.65,5.65,0,0,1-11.3,0V423.85a5.65,5.65,0,1,1,11.3,0v47l28-25a4.87,4.87,0,0,1,3.58-1.5,4.8,4.8,0,0,1,3.91,1.84,4.93,4.93,0,0,1,1.5,3.58,4.78,4.78,0,0,1-1.84,3.92l-21.21,18.93L281,500A4.88,4.88,0,0,1,282.25,503.45Z" transform="translate(42.94 42.96)"/><path class="cls-4" d="M345.42,479.39a5.28,5.28,0,0,1-3.81,1.44h-43.8a20.36,20.36,0,0,0,7.32,13,22.56,22.56,0,0,0,14.81,5,22.15,22.15,0,0,0,7.21-1.27,21.52,21.52,0,0,0,6.16-3.11,6,6,0,0,1,3.81-1.27,5,5,0,0,1,3.46,1.15,5.06,5.06,0,0,1,2.07,3.93,4.18,4.18,0,0,1-1.84,3.46,31.77,31.77,0,0,1-9.74,5.07A35.07,35.07,0,0,1,303,504.66a29.65,29.65,0,0,1-11.7-11.36,32.3,32.3,0,0,1-4.21-16.5,34.12,34.12,0,0,1,4-16.56,28.72,28.72,0,0,1,11.06-11.42,31.55,31.55,0,0,1,16.08-4.1,29,29,0,0,1,15.34,3.92,26,26,0,0,1,9.91,11,36.37,36.37,0,0,1,3.46,16.16A4.82,4.82,0,0,1,345.42,479.39Zm-40.87-20.13a20.73,20.73,0,0,0-6.62,12.34h38.38a20.44,20.44,0,0,0-5.76-12.34q-4.73-4.62-12.34-4.62Q309.8,454.64,304.55,459.26Z" transform="translate(42.94 42.96)"/><path class="cls-4" d="M389.39,498.37a6,6,0,0,1,1.44,4.16,5.21,5.21,0,0,1-1.9,4.15,7.26,7.26,0,0,1-4.9,1.61H382a19,19,0,0,1-10.32-2.94,20.5,20.5,0,0,1-7.32-8,24.33,24.33,0,0,1-2.65-11.42v-28.5h-5.3a5.57,5.57,0,0,1-3.89-1.43,4.53,4.53,0,0,1-1.5-3.47,4.79,4.79,0,0,1,1.5-3.69,5.57,5.57,0,0,1,3.92-1.38h5.3V430.87a5.77,5.77,0,0,1,11.53-.48,3.84,3.84,0,0,1,0,.48v16.62H383a5.59,5.59,0,0,1,3.93,1.38,4.83,4.83,0,0,1,1.49,3.69A4.57,4.57,0,0,1,387,456a5.59,5.59,0,0,1-3.93,1.38h-9.79v28.5a11.83,11.83,0,0,0,2.53,7.73,7.77,7.77,0,0,0,6.23,3.12h3.92A4.57,4.57,0,0,1,389.39,498.37Z" transform="translate(42.94 42.96)"/><path class="cls-6" d="M9.69,598a21.51,21.51,0,0,1-9-6.18,2.66,2.66,0,0,1,.59-4.06A2.6,2.6,0,0,1,3,587.27a2.79,2.79,0,0,1,2.27,1.08q4.93,6,15.89,6,7.8,0,11.5-2.77a8.52,8.52,0,0,0,3.71-7.12q0-7.82-15.11-10-9.57-1.38-14.46-5.24c-3.26-2.58-4.88-5.67-4.88-9.3q0-7.23,5.28-11.23t13.77-4q12.43,0,18.85,8.9a2.48,2.48,0,0,1,.59,1.69,2.58,2.58,0,0,1-1.58,2.27,4.29,4.29,0,0,1-1.48.4,3,3,0,0,1-2.47-1.29q-5-6.43-14.11-6.43-6,0-9.58,2.62a7.82,7.82,0,0,0-3.55,6.48A7.39,7.39,0,0,0,11,565.67q3.47,2.33,11.47,3.56,10.46,1.49,15.05,5.59a12.86,12.86,0,0,1,4.59,9.94,12.1,12.1,0,0,1-2.91,8,18.72,18.72,0,0,1-7.75,5.34A29,29,0,0,1,20.85,600,31.73,31.73,0,0,1,9.69,598Z" transform="translate(42.94 42.96)"/><path class="cls-6" d="M96.56,548.3a26.16,26.16,0,0,1,9.92,9.94,28.15,28.15,0,0,1,3.6,14.15v24.05a3,3,0,0,1-.79,2.13,2.84,2.84,0,0,1-2.17.84,2.87,2.87,0,0,1-3-2.73v-8A23,23,0,0,1,95.19,597a26.57,26.57,0,0,1-12.69,3,27.84,27.84,0,0,1-14-3.56,26,26,0,0,1-9.92-9.95,29.36,29.36,0,0,1,0-28.2,26.09,26.09,0,0,1,9.92-9.94,29.22,29.22,0,0,1,28.13,0Zm-3,43.29a20.55,20.55,0,0,0,7.75-7.92,24,24,0,0,0,0-22.56,21,21,0,0,0-7.75-8,21.67,21.67,0,0,0-29.69,7.61l-.22.39a23.69,23.69,0,0,0,0,22.56,20.75,20.75,0,0,0,7.8,7.92A22.71,22.71,0,0,0,93.56,591.59Z" transform="translate(42.94 42.96)"/><path class="cls-6" d="M169,548.3a26.16,26.16,0,0,1,9.92,9.94,29.41,29.41,0,0,1,0,28.2,26.19,26.19,0,0,1-9.92,9.95,29.29,29.29,0,0,1-28,.1,26,26,0,0,1-9.92-9.75,27.61,27.61,0,0,1-3.76-13.85V525.1a2.86,2.86,0,0,1,.84-2.18,3,3,0,0,1,2.13-.79,2.9,2.9,0,0,1,2.17.79,3,3,0,0,1,.79,2.18V556a23,23,0,0,1,8.93-8.26,26.57,26.57,0,0,1,12.69-3A27.83,27.83,0,0,1,169,548.3ZM166,591.54a21.39,21.39,0,0,0,7.8-8,23.71,23.71,0,0,0,0-22.57,21,21,0,0,0-7.8-7.91,22.71,22.71,0,0,0-22.11,0,20.59,20.59,0,0,0-7.75,7.91,24,24,0,0,0,0,22.57,21,21,0,0,0,7.75,8A22.4,22.4,0,0,0,166,591.54Z" transform="translate(42.94 42.96)"/><path class="cls-6" d="M238.48,548.3a26.16,26.16,0,0,1,9.92,9.94A28.06,28.06,0,0,1,252,572.39v24.05a3,3,0,0,1-.79,2.13A3.09,3.09,0,0,1,246,596.7v-8A22.92,22.92,0,0,1,237.1,597a26.67,26.67,0,0,1-12.62,3,27.92,27.92,0,0,1-14.12-3.61,26.19,26.19,0,0,1-9.92-9.95,29.41,29.41,0,0,1,0-28.2,26.16,26.16,0,0,1,9.92-9.94,29.22,29.22,0,0,1,28.13,0Zm-3,43.29a20.55,20.55,0,0,0,7.75-7.92,24,24,0,0,0,0-22.56,20.9,20.9,0,0,0-7.75-8,21.67,21.67,0,0,0-29.69,7.61l-.22.39a23.69,23.69,0,0,0,0,22.56,20.89,20.89,0,0,0,7.8,7.92A22.71,22.71,0,0,0,235.48,591.59Z" transform="translate(42.94 42.96)"/><path class="cls-6" d="M306.86,547.56a21.42,21.42,0,0,1,8.88,8.66,27.29,27.29,0,0,1,3.21,13.6v26.62a2.87,2.87,0,0,1-2.73,3H316a2.87,2.87,0,0,1-3-3V569.82q0-9.39-5.28-14.35t-13.77-4.94a22,22,0,0,0-9.53,2,16.69,16.69,0,0,0-6.76,5.64,13.85,13.85,0,0,0-2.47,8v30.28a3,3,0,0,1-.79,2.13,2.8,2.8,0,0,1-2.17.84,2.87,2.87,0,0,1-3-2.73V548.25a2.86,2.86,0,0,1,.84-2.18,3,3,0,0,1,2.12-.79,2.73,2.73,0,0,1,3,3v5.15a23.5,23.5,0,0,1,8.19-6.48,24.15,24.15,0,0,1,10.57-2.33A27.45,27.45,0,0,1,306.86,547.56Z" transform="translate(42.94 42.96)"/><path class="cls-6" d="M376.9,548.3a26.23,26.23,0,0,1,9.92,9.94,28.15,28.15,0,0,1,3.6,14.15v24.05a3,3,0,0,1-.79,2.13,3.08,3.08,0,0,1-5.17-1.87v-8a22.92,22.92,0,0,1-8.94,8.26,26.51,26.51,0,0,1-12.68,3,27.92,27.92,0,0,1-14.12-3.61,26.19,26.19,0,0,1-9.92-10,29.41,29.41,0,0,1,0-28.2,26.16,26.16,0,0,1,9.92-9.94,29.24,29.24,0,0,1,28.14,0Zm-3,43.29a20.55,20.55,0,0,0,7.75-7.92,24,24,0,0,0,0-22.56,20.9,20.9,0,0,0-7.75-8,21.67,21.67,0,0,0-29.69,7.61l-.22.39a23.69,23.69,0,0,0,0,22.56,20.89,20.89,0,0,0,7.8,7.92A22.71,22.71,0,0,0,373.9,591.59Z" transform="translate(42.94 42.96)"/></g></g></svg>